<svg width="75" height="70" viewBox="0 0 75 70" fill="none" xmlns="http://www.w3.org/2000/svg">
<path d="M61.4211 39.4512C53.9014 39.4512 47.8422 45.4996 47.8422 53.0192C47.8422 60.5388 53.9014 66.5981 61.4211 66.5981C68.9407 66.5981 74.9999 60.5497 74.9999 53.0192C74.9999 45.4887 68.9407 39.4512 61.4211 39.4512Z" fill="#FF4053"/>
<path d="M22.4608 24.5103C10.0588 24.5103 0 34.5691 0 46.971C0 59.3729 10.0588 69.4318 22.4608 69.4318C34.8627 69.4318 44.9106 59.3729 44.9106 46.971C44.9106 34.5691 34.8518 24.5103 22.4608 24.5103Z" fill="#04E061"/>
<path d="M56.1465 36.5192C66.2053 36.5192 74.4115 28.313 74.4115 18.2541C74.4115 8.19529 66.2053 0 56.1465 0C46.0876 0 37.8923 8.20619 37.8923 18.2541C37.8923 28.3021 46.0985 36.5192 56.1465 36.5192Z" fill="#00AAFF"/>
<path d="M26.7545 21.5785C31.4407 21.5785 35.1569 17.7751 35.1569 13.1761C35.1569 8.57717 31.4407 4.78467 26.7545 4.78467C22.0684 4.78467 18.3522 8.50088 18.3522 13.1761C18.3522 17.8514 22.1665 21.5785 26.7545 21.5785Z" fill="#965EEB"/>
</svg>
