<svg width="61" height="60" viewBox="0 0 61 60" fill="none" xmlns="http://www.w3.org/2000/svg">
<path d="M39.9669 27.394C36.8169 27.394 34.2668 29.944 34.2668 33.094V48.244H45.5169V33.094C45.6669 29.944 43.1169 27.394 39.9669 27.394Z" stroke="#965EEB" stroke-width="1.5" stroke-miterlimit="10" stroke-linecap="round" stroke-linejoin="round"/>
<path d="M34.4167 44.0441H45.6667" stroke="#965EEB" stroke-width="1.5" stroke-miterlimit="10" stroke-linecap="round" stroke-linejoin="round"/>
<path d="M27.5167 48.244H15.6667V32.794C15.6667 31.744 16.5668 30.844 17.6168 30.844H25.5667C26.6167 30.844 27.5167 31.744 27.5167 32.794V48.244Z" stroke="#965EEB" stroke-width="1.5" stroke-miterlimit="10" stroke-linecap="round" stroke-linejoin="round"/>
<path d="M15.9668 35.0439H27.3668" stroke="#965EEB" stroke-width="1.5" stroke-miterlimit="10" stroke-linecap="round" stroke-linejoin="round"/>
<path d="M26.3168 21.5439H17.0168V30.8439H26.3168V21.5439Z" stroke="#965EEB" stroke-width="1.5" stroke-miterlimit="10" stroke-linecap="round" stroke-linejoin="round"/>
<path d="M24.8167 21.544H18.3667V15.244L23.4667 12.094C24.0667 11.794 24.8167 12.244 24.8167 12.994V21.544Z" stroke="#965EEB" stroke-width="1.5" stroke-miterlimit="10" stroke-linecap="round" stroke-linejoin="round"/>
</svg>
