<svg width="60" height="60" viewBox="0 0 60 60" fill="none" xmlns="http://www.w3.org/2000/svg">
<path d="M51.3 30.4501C49.65 39.6001 41.7001 45.9001 32.8501 45.9001C31.6501 45.9001 30.6 45.7501 29.4 45.6001C31.35 43.6501 32.85 41.4001 33.9 39.1501C33.9 39.0001 34.05 38.8501 34.05 38.7001C34.5 37.8001 34.8001 36.9001 35.1001 36.0001C35.2501 35.7001 35.25 35.2501 35.4 34.9501C36.6 33.9001 37.8 33.0001 39.15 32.2501C42.9 30.4501 47.1 29.7001 51.3 30.4501Z" stroke="#965EEB" stroke-width="1.5" stroke-miterlimit="10" stroke-linecap="round" stroke-linejoin="round"/>
<path d="M29.4 45.6001C28.2 45.7501 27.15 45.9001 25.95 45.9001C16.95 45.9001 9.15 39.6001 7.5 30.4501C11.85 29.7001 16.05 30.4501 19.5 32.2501C20.85 33.0001 22.2 33.9001 23.25 34.9501C23.4 35.2501 23.4 35.7001 23.55 36.0001C23.85 36.9001 24.15 37.8001 24.45 38.7001C24.45 38.8501 24.6 39.0001 24.6 39.1501C25.95 41.4001 27.45 43.6501 29.4 45.6001Z" stroke="#965EEB" stroke-width="1.5" stroke-miterlimit="10" stroke-linecap="round" stroke-linejoin="round"/>
<path d="M36 29.55C36 31.35 35.85 33.15 35.4 34.95C35.25 35.25 35.25 35.7 35.1 36C34.8 36.9 34.5 37.8 34.05 38.7C34.05 38.85 33.9 39 33.9 39.15C32.85 41.55 31.2 43.65 29.4 45.6C27.45 43.65 25.95 41.4 24.9 39.15C24.9 39 24.75 38.85 24.75 38.7C24.3 37.8 24 36.9 23.85 36C23.7 35.7 23.7 35.25 23.55 34.95C22.5 30.75 22.8 26.25 24.15 22.2C25.2 19.05 27 16.05 29.55 13.5C32.1 16.05 33.9 19.05 34.95 22.2C35.7 24.6 36 27 36 29.55Z" stroke="#965EEB" stroke-width="1.5" stroke-miterlimit="10" stroke-linecap="round" stroke-linejoin="round"/>
<path d="M43.8001 19.9501C43.8001 24.6001 42.1501 28.95 39.3001 32.25C37.9501 33 36.6001 33.9001 35.5501 34.9501C36.0001 33.1501 36.1501 31.3501 36.1501 29.5501C36.1501 27.0001 35.7001 24.6001 34.9501 22.2001C37.5001 20.7001 40.5001 19.9501 43.8001 19.9501Z" stroke="#965EEB" stroke-width="1.5" stroke-miterlimit="10" stroke-linecap="round" stroke-linejoin="round"/>
<path d="M23.4 34.9501C22.2 33.9001 21 33 19.65 32.25C16.8 28.95 15.15 24.6001 15.15 19.9501C18.3 19.9501 21.45 20.7001 24 22.2001C22.5 26.2501 22.35 30.7501 23.4 34.9501Z" stroke="#965EEB" stroke-width="1.5" stroke-miterlimit="10" stroke-linecap="round" stroke-linejoin="round"/>
</svg>
