<svg width="40" height="40" viewBox="0 0 40 40" fill="none" xmlns="http://www.w3.org/2000/svg">
<g clip-path="url(#clip0_175_1149)">
<path d="M12.9158 20.8945L30.9289 9.80028C31.2527 9.60145 31.5857 10.0392 31.3077 10.2971L16.4417 24.1158C15.9192 24.6022 15.5821 25.2531 15.4866 25.9597L14.9802 29.7125C14.9132 30.2136 14.2093 30.2633 14.071 29.7784L12.1234 22.935C11.9004 22.1544 12.2254 21.3207 12.9158 20.8945Z" fill="#E4E4E4"/>
<path d="M0.706484 19.2861L9.9233 22.7261L13.4908 34.1991C13.7191 34.9339 14.6176 35.2055 15.214 34.718L20.3516 30.5297C20.8901 30.0908 21.6572 30.069 22.22 30.4776L31.4865 37.2052C32.1244 37.6689 33.0283 37.3193 33.1883 36.5484L39.9765 3.89618C40.1512 3.05407 39.3237 2.35149 38.5218 2.66165L0.695703 17.2537C-0.237736 17.6137 -0.229611 18.9353 0.706484 19.2861ZM12.9159 20.8949L30.929 9.80065C31.2527 9.60182 31.5858 10.0396 31.3078 10.2974L16.4417 24.1161C15.9192 24.6026 15.5821 25.2535 15.4867 25.9601L14.9803 29.7129C14.9132 30.214 14.2093 30.2637 14.071 29.7787L12.1235 22.9354C11.9004 22.1547 12.2255 21.3211 12.9159 20.8949Z" fill="white"/>
</g>
<defs>
<clipPath id="clip0_175_1149">
<rect width="40" height="40" fill="white"/>
</clipPath>
</defs>
</svg>
