<svg width="61" height="60" viewBox="0 0 61 60" fill="none" xmlns="http://www.w3.org/2000/svg">
<path d="M37.452 8.06174C37.6188 8.18034 37.8106 8.23753 38.0008 8.23753C38.297 8.23753 38.5884 8.09913 38.7732 7.83967C39.0767 7.41358 38.9774 6.8219 38.5511 6.51839L38.4485 6.44526C38.0222 6.14186 37.4306 6.24112 37.1272 6.66745C36.8237 7.09354 36.9231 7.68522 37.3493 7.98874L37.452 8.06174Z" fill="#965EEB"/>
<path d="M30.8389 11.9795C30.1274 12.4923 29.7195 13.2894 29.7195 14.1663V22.7176C29.7195 23.8797 30.4602 24.9073 31.5627 25.2748L40.8559 28.3724C40.8576 28.3729 40.8593 28.3731 40.8611 28.3737C40.8938 28.3843 40.9274 28.3911 40.961 28.3982C40.9767 28.4014 40.9923 28.4067 41.0082 28.4093C41.0256 28.4121 41.0434 28.4119 41.0611 28.4136C41.0925 28.4168 41.1242 28.4213 41.1555 28.4213C41.2061 28.4213 41.2562 28.4169 41.3056 28.409C41.3105 28.4082 41.3152 28.4064 41.32 28.4056C41.3642 28.3977 41.4078 28.3875 41.4502 28.3736C41.4517 28.3731 41.4533 28.373 41.455 28.3724L50.7483 25.2748C51.8507 24.9073 52.5914 23.8797 52.5914 22.7176V14.1663C52.5914 13.2893 52.1834 12.4924 51.4721 11.9795C50.7606 11.4667 49.8754 11.3319 49.0436 11.6091L41.1556 14.2385L33.2676 11.6091C32.4354 11.3319 31.5503 11.4668 30.8389 11.9795ZM42.1027 15.9198L49.6426 13.4066C49.8894 13.3242 50.1525 13.3642 50.3639 13.5166C50.5753 13.669 50.6965 13.9057 50.6965 14.1663V22.7176C50.6965 23.0629 50.4764 23.3681 50.149 23.4772L42.1027 26.1593V15.9198ZM40.208 26.1593L32.1617 23.4772C31.8342 23.3681 31.6142 23.0627 31.6143 22.7176V14.1663C31.6143 13.9057 31.7355 13.669 31.9467 13.5166C32.158 13.3642 32.421 13.3242 32.6682 13.4066L40.208 15.9199V26.1593Z" fill="#965EEB"/>
<path d="M42.2744 6.84498C42.4412 6.96357 42.633 7.02076 42.8232 7.02076C43.1194 7.02076 43.4108 6.88236 43.5956 6.62291C43.8991 6.19682 43.7997 5.60514 43.3735 5.30162L43.2708 5.22838C42.8444 4.9251 42.2529 5.02436 41.9495 5.45057C41.646 5.87666 41.7453 6.46834 42.1715 6.77186L42.2744 6.84498Z" fill="#965EEB"/>
<path d="M40.0755 9.93104C40.2422 10.0496 40.434 10.1068 40.6242 10.1068C40.9204 10.1068 41.2118 9.96842 41.3966 9.70897C41.7001 9.28288 41.6008 8.6912 41.1746 8.38768L41.0718 8.31444C40.6455 8.01116 40.054 8.11042 39.7505 8.53663C39.447 8.96272 39.5464 9.5544 39.9726 9.85792L40.0755 9.93104Z" fill="#965EEB"/>
<path d="M29.53 32.8422H29.4036C28.8804 32.8422 28.4563 33.2661 28.4563 33.7895C28.4563 34.3129 28.8805 34.7369 29.4036 34.7369H29.53C30.0532 34.7369 30.4773 34.3128 30.4773 33.7895C30.4773 33.2661 30.0532 32.8422 29.53 32.8422Z" fill="#965EEB"/>
<path d="M8.14847 29.2721C4.5978 26.3197 2.56155 21.9811 2.56155 17.3684C2.56155 8.83606 9.50304 1.89469 18.0352 1.89469C23.826 1.89469 29.0876 5.08746 31.7664 10.2273C32.0082 10.6911 32.5803 10.8713 33.0444 10.6295C33.5083 10.3877 33.6884 9.81563 33.4467 9.35156C30.4401 3.58336 24.5349 0 18.0351 0C8.45819 0 0.666748 7.79156 0.666748 17.3684C0.666748 22.5458 2.95214 27.4155 6.9371 30.7289C7.11405 30.8761 7.32886 30.9478 7.54237 30.9478C7.81413 30.9478 8.08401 30.8314 8.2714 30.6061C8.60573 30.204 8.55077 29.6068 8.14847 29.2721Z" fill="#965EEB"/>
<path d="M16.7721 17.0526H16.8984C17.4216 17.0526 17.8457 16.6287 17.8457 16.1053C17.8457 15.5819 17.4215 15.158 16.8984 15.158H16.7721C16.2488 15.158 15.8247 15.5821 15.8247 16.1053C15.8246 16.6285 16.2488 17.0526 16.7721 17.0526Z" fill="#965EEB"/>
<path d="M37.4336 38.5766C36.9554 38.3634 36.3957 38.5781 36.1827 39.0561C34.1024 43.7219 29.4582 46.7368 24.3511 46.7368C17.2118 46.7368 11.4037 40.9287 11.4037 33.7895C11.4037 31.2702 12.1275 28.8285 13.497 26.728C13.7827 26.2897 13.6591 25.7027 13.2208 25.417C12.7828 25.1314 12.1957 25.2548 11.9097 25.6931C10.3393 28.1021 9.50903 30.9017 9.50903 33.7895C9.50903 41.9735 16.1672 48.6316 24.3512 48.6316C30.2054 48.6316 35.5289 45.1759 37.9133 39.8277C38.1262 39.3498 37.9115 38.7896 37.4336 38.5766Z" fill="#965EEB"/>
<path d="M14.2456 50.5264C11.6336 50.5264 9.50879 52.6512 9.50879 55.2632C9.50879 57.8752 11.6336 60 14.2456 60C16.8576 60 18.9825 57.8752 18.9825 55.2632C18.9825 52.6512 16.8575 50.5264 14.2456 50.5264ZM14.2456 58.1054C12.6785 58.1054 11.4035 56.8304 11.4035 55.2632C11.4035 53.6961 12.6784 52.4211 14.2456 52.4211C15.8128 52.4211 17.0878 53.6961 17.0878 55.2632C17.0878 56.8304 15.8128 58.1054 14.2456 58.1054Z" fill="#965EEB"/>
<path d="M42.0351 0C38.6782 0 35.387 0.902812 32.5176 2.61117C32.068 2.87871 31.9205 3.4602 32.1882 3.90973C32.4558 4.35938 33.0372 4.50691 33.4868 4.23914C36.0633 2.70539 39.0194 1.89469 42.0351 1.89469C51.2638 1.89469 58.7719 9.40277 58.7719 18.6315C58.7719 27.8603 51.2639 35.3685 42.0351 35.3685C39.0924 35.3685 36.1988 34.5945 33.6673 33.1301C33.2146 32.8684 32.6348 33.0227 32.3728 33.4757C32.1108 33.9286 32.2657 34.5082 32.7186 34.7701C35.5381 36.4011 38.7597 37.2632 42.0351 37.2632C52.3086 37.2632 60.6667 28.9051 60.6667 18.6316C60.6667 8.35816 52.3087 0 42.0351 0Z" fill="#965EEB"/>
<path d="M29.53 36.6315H29.4036C28.8804 36.6315 28.4563 37.0555 28.4563 37.5788C28.4563 38.1022 28.8805 38.5262 29.4036 38.5262H29.53C30.0532 38.5262 30.4773 38.1022 30.4773 37.5788C30.4773 37.0556 30.0532 36.6315 29.53 36.6315Z" fill="#965EEB"/>
<path d="M10.5981 22.3426C11.4651 23.2093 12.6037 23.6429 13.7424 23.6429C14.8591 23.6429 15.9749 23.2249 16.8352 22.3913C17.6953 23.2249 18.8114 23.6429 19.928 23.6429C21.0667 23.6429 22.2053 23.2094 23.0723 22.3426C24.7893 20.6255 24.8048 17.8429 23.121 16.1054C24.8048 14.3677 24.7893 11.5852 23.0723 9.86818C21.3552 8.15126 18.5727 8.13579 16.8352 9.81943C15.0975 8.13579 12.3152 8.15126 10.5981 9.86818C8.88109 11.5852 8.86562 14.3678 10.5494 16.1054C8.86562 17.8429 8.88121 20.6255 10.5981 22.3426ZM11.938 21.0027C10.9603 20.0252 10.9457 18.4464 11.8894 17.4479L15.4929 21.0515C14.4943 21.9949 12.9155 21.9802 11.938 21.0027ZM21.7327 21.0026C20.755 21.9804 19.1765 21.995 18.1778 21.0514L21.7813 17.4477C22.7248 18.4463 22.7102 20.0251 21.7327 21.0026ZM21.7325 11.208C22.7102 12.1856 22.7248 13.7643 21.7811 14.7629L18.1776 11.1592C19.1762 10.2158 20.755 10.2304 21.7325 11.208ZM20.4441 16.1054L16.8353 19.7142L13.2265 16.1054L16.8353 12.4966L20.4441 16.1054ZM11.9378 11.2081C12.4354 10.7105 13.0887 10.4618 13.7423 10.4618C14.373 10.4618 15.0023 10.696 15.4927 11.1593L11.8892 14.763C10.9457 13.7643 10.9603 12.1856 11.9378 11.2081Z" fill="#965EEB"/>
<path d="M31.614 28.7369C31.614 28.2135 31.1898 27.7896 30.6667 27.7896H26.9875C25.7577 27.7896 24.67 28.5734 24.281 29.7401L21.3601 38.5028C21.2295 38.8948 20.8642 39.158 20.4513 39.158C20.0937 39.158 19.7685 38.9613 19.6027 38.6445L16.3481 32.4313C16.1053 31.9679 15.5327 31.789 15.0693 32.0319C14.6058 32.2747 14.4268 32.8471 14.6696 33.3107L17.9242 39.5239C18.4184 40.467 19.3867 41.0528 20.4512 41.0528C21.681 41.0528 22.7687 40.269 23.1577 39.1022L26.0786 30.3396C26.2092 29.9476 26.5745 29.6844 26.9873 29.6844H30.6667C31.1899 29.6842 31.614 29.2603 31.614 28.7369Z" fill="#965EEB"/>
<path d="M8.05634 24H7.93001C7.40677 24 6.98267 24.4241 6.98267 24.9473C6.98267 25.4706 7.40688 25.8947 7.93001 25.8947H8.05634C8.57958 25.8947 9.00368 25.4706 9.00368 24.9473C9.00368 24.4241 8.57946 24 8.05634 24Z" fill="#965EEB"/>
<path d="M19.4245 30.9473C19.9477 30.9473 20.3718 30.5232 20.3718 30C20.3718 29.4766 19.9476 29.0526 19.4245 29.0526H19.2982C18.7749 29.0526 18.3508 29.4767 18.3508 30C18.3508 30.5233 18.775 30.9473 19.2982 30.9473H19.4245Z" fill="#965EEB"/>
</svg>
