<svg width="24" height="24" viewBox="0 0 24 24" fill="none" xmlns="http://www.w3.org/2000/svg">
<g clip-path="url(#clip0_135_1312)">
<path d="M20.9743 19.9539C22.8546 17.8349 24 15.0492 24 12C24 8.82745 22.7603 5.94083 20.7426 3.79283V3.79241C20.741 3.78993 20.7385 3.7891 20.7372 3.78703C18.6356 1.55297 15.691 0.122897 12.4159 0.0107586L12.4154 0.0103448L12.1817 0.00413793C12.1212 0.00206897 12.0608 0 12 0C11.9392 0 11.8788 0.00206897 11.8183 0.00413793L11.5854 0.0103448L11.585 0.0107586C8.30979 0.122897 5.36524 1.55297 3.26359 3.78703C3.26193 3.7891 3.25945 3.78993 3.25821 3.79241L3.25779 3.79324C1.23972 5.94083 0 8.82745 0 12C0 15.0492 1.14538 17.8349 3.02566 19.9539C3.02814 19.9577 3.02814 19.9618 3.03103 19.9655C3.03848 19.9759 3.04924 19.9808 3.0571 19.9903C5.16993 22.3523 8.20138 23.8738 11.5846 23.9897L11.585 23.9901L11.8179 23.9963C11.8788 23.9979 11.9392 24 12 24C12.0608 24 12.1212 23.9979 12.1817 23.9959L12.4146 23.9897L12.415 23.9892C15.8019 23.873 18.8367 22.3486 20.9495 19.9817C20.9549 19.9746 20.9636 19.9726 20.9686 19.9651C20.9719 19.9618 20.9719 19.9577 20.9743 19.9539ZM0.837931 12.4138H5.80469C5.85145 14.1679 6.19407 15.8723 6.804 17.4691C5.62717 17.8949 4.50207 18.4659 3.44772 19.1785C1.89724 17.3342 0.932276 14.9834 0.837931 12.4138ZM3.67366 4.56124C4.70317 5.23076 5.79931 5.76703 6.94262 6.16759C6.24248 7.86703 5.85517 9.69931 5.80469 11.5862H0.837931C0.936828 8.89366 1.99117 6.44193 3.67366 4.56124ZM23.1621 11.5862H18.1953C18.1448 9.69931 17.7575 7.86703 17.0574 6.16759C18.2007 5.76703 19.2968 5.23076 20.3263 4.56124C22.0088 6.44193 23.0632 8.89366 23.1621 11.5862ZM11.5862 6.19159C10.3899 6.15766 9.21559 5.97931 8.08097 5.66069C8.91972 3.94014 10.104 2.38717 11.5862 1.09407V6.19159ZM11.5862 7.01917V11.5862H6.63228C6.68317 9.78703 7.06055 8.04207 7.73545 6.42414C8.97931 6.78455 10.2708 6.984 11.5862 7.01917ZM12.4138 7.01917C13.7292 6.984 15.0207 6.78497 16.265 6.42414C16.9399 8.04207 17.3172 9.78703 17.3681 11.5862H12.4138V7.01917ZM12.4138 6.19159V1.09407C13.896 2.38717 15.0803 3.94014 15.919 5.66069C14.7844 5.97931 13.6101 6.15766 12.4138 6.19159ZM16.721 5.4091C15.9261 3.74359 14.8229 2.22621 13.457 0.925655C15.8801 1.24262 18.0604 2.33835 19.7396 3.95379C18.7862 4.55876 17.7749 5.04538 16.721 5.4091ZM7.27903 5.4091C6.2251 5.04538 5.21379 4.55876 4.26083 3.95379C5.93959 2.33835 8.12028 1.24262 10.5434 0.925655C9.1771 2.22621 8.07393 3.74359 7.27903 5.4091ZM6.63228 12.4138H11.5862V16.5674C10.2178 16.6039 8.8771 16.8174 7.58855 17.2051C7.00635 15.6927 6.67903 14.0768 6.63228 12.4138ZM11.5862 17.395V22.9059C9.99972 21.5218 8.75586 19.8401 7.91007 17.9748C9.09641 17.6251 10.3287 17.4306 11.5862 17.395ZM12.4138 22.9059V17.395C13.6713 17.4302 14.9036 17.6251 16.0899 17.9743C15.2441 19.8401 14.0003 21.5218 12.4138 22.9059ZM12.4138 16.5674V12.4138H17.3677C17.321 14.0768 16.9937 15.6927 16.411 17.2055C15.1229 16.8174 13.7822 16.6039 12.4138 16.5674ZM18.1953 12.4138H23.1621C23.0677 14.9834 22.1032 17.3342 20.5523 19.1785C19.4979 18.4659 18.3728 17.8949 17.196 17.4691C17.8063 15.8723 18.1486 14.1679 18.1953 12.4138ZM4.01007 19.7983C4.9891 19.1479 6.03145 18.6248 7.12055 18.2338C7.92538 20.0379 9.08069 21.6819 10.543 23.0743C7.99779 22.7412 5.71986 21.5495 4.01007 19.7983ZM13.457 23.0743C14.9193 21.6823 16.0746 20.0383 16.8794 18.2338C17.9686 18.6248 19.0105 19.1479 19.9899 19.7983C18.2801 21.5495 16.0022 22.7412 13.457 23.0743Z" fill="black"/>
</g>
<defs>
<clipPath id="clip0_135_1312">
<rect width="24" height="24" fill="white"/>
</clipPath>
</defs>
</svg>
