<svg width="24" height="24" viewBox="0 0 24 24" fill="none" xmlns="http://www.w3.org/2000/svg">
<g clip-path="url(#clip0_135_1309)">
<path d="M20 16H16.8V8H20C22.2056 8 24 6.2056 24 4C24 1.7944 22.2056 0 20 0C17.7944 0 16 1.7944 16 4V7.2H8V4C8 1.7944 6.2056 0 4 0C1.7944 0 0 1.7944 0 4C0 6.2056 1.7944 8 4 8H7.2V16H4C1.7944 16 0 17.7944 0 20C0 22.2056 1.7944 24 4 24C6.2056 24 8 22.2056 8 20V16.8H16V20C16 22.2056 17.7944 24 20 24C22.2056 24 24 22.2056 24 20C24 17.7944 22.2056 16 20 16ZM16.8 4C16.8 2.2356 18.2356 0.8 20 0.8C21.7644 0.8 23.2 2.2356 23.2 4C23.2 5.7644 21.7644 7.2 20 7.2H16.8V4ZM4 7.2C2.2356 7.2 0.8 5.7644 0.8 4C0.8 2.2356 2.2356 0.8 4 0.8C5.7644 0.8 7.2 2.2356 7.2 4V7.2H4ZM7.2 20C7.2 21.7644 5.7644 23.2 4 23.2C2.2356 23.2 0.8 21.7644 0.8 20C0.8 18.2356 2.2356 16.8 4 16.8H7.2V20ZM8 16V8H16V16H8ZM20 23.2C18.2356 23.2 16.8 21.7644 16.8 20V16.8H20C21.7644 16.8 23.2 18.2356 23.2 20C23.2 21.7644 21.7644 23.2 20 23.2Z" fill="black"/>
</g>
<defs>
<clipPath id="clip0_135_1309">
<rect width="24" height="24" fill="white"/>
</clipPath>
</defs>
</svg>
