<svg width="60" height="60" viewBox="0 0 60 60" fill="none" xmlns="http://www.w3.org/2000/svg">
<path d="M29.6836 10.9529C24.8537 11.0331 20.2318 12.9326 16.7413 16.2718C13.1953 19.6406 11.1996 24.0298 11.1219 28.6301C11.0842 30.9734 11.5181 33.3002 12.3978 35.4724C13.2776 37.6445 14.5853 39.6175 16.243 41.274C18.9969 44.0153 20.4247 47.813 20.1494 51.563H19.0991C18.8504 51.563 18.612 51.6618 18.4362 51.8376C18.2604 52.0134 18.1616 52.2519 18.1616 52.5005C18.1616 52.7492 18.2604 52.9876 18.4362 53.1634C18.612 53.3393 18.8504 53.438 19.0991 53.438H21.2109V58.4722C21.2149 58.7231 21.3173 58.9623 21.496 59.1385C21.6747 59.3146 21.9154 59.4136 22.1663 59.414H37.8336C38.0846 59.4136 38.3254 59.3146 38.5042 59.1383C38.6829 58.962 38.7852 58.7226 38.789 58.4716V53.4374H40.9011C41.1498 53.4374 41.3882 53.3387 41.564 53.1629C41.7398 52.987 41.8386 52.7486 41.8386 52.4999C41.8386 52.2513 41.7398 52.0128 41.564 51.837C41.3882 51.6612 41.1498 51.5624 40.9011 51.5624H39.6301C39.3212 47.6953 40.6868 44.2492 43.6069 41.3462C43.6099 41.3432 43.6128 41.3281 43.6158 41.3251C46.9613 37.9081 48.8039 33.5061 48.8039 28.9408C48.8039 24.2494 46.9186 19.8044 43.4953 16.4299C39.8374 12.8244 34.931 10.8782 29.6836 10.9529ZM36.914 57.539H23.0859V53.4374H36.914V57.539ZM42.2804 40.0209C39.0431 43.2421 37.4576 47.2265 37.7517 51.5624H22.0277C22.2972 47.2265 20.6728 43.0375 17.5645 39.9441C16.0859 38.4684 14.9195 36.7101 14.1347 34.774C13.3499 32.838 12.9628 30.7638 12.9965 28.675C13.0658 24.5806 14.8543 20.6567 18.0327 17.6371C21.1817 14.6219 25.3522 12.9055 29.7113 12.8307C34.4525 12.7615 38.8814 14.5134 42.1788 17.7643C45.242 20.7836 46.9289 24.7627 46.9289 28.948C46.9289 33.0175 45.2781 36.9571 42.2804 40.0209Z" fill="#965EEB"/>
<path d="M29.5312 7.17008C29.7799 7.17008 30.0183 7.07131 30.1942 6.89549C30.37 6.71968 30.4688 6.48122 30.4688 6.23258V1.52832C30.4688 1.27968 30.37 1.04122 30.1942 0.865408C30.0183 0.689592 29.7799 0.59082 29.5312 0.59082C29.2826 0.59082 29.0442 0.689592 28.8683 0.865408C28.6925 1.04122 28.5938 1.27968 28.5938 1.52832V6.23258C28.5938 6.48122 28.6925 6.71968 28.8683 6.89549C29.0442 7.07131 29.2826 7.17008 29.5312 7.17008Z" fill="#965EEB"/>
<path d="M51.4539 10.6281L47.1751 14.3466C46.9874 14.5098 46.8723 14.7408 46.8549 14.9889C46.8376 15.237 46.9195 15.4818 47.0827 15.6695C47.2459 15.8571 47.4769 15.9723 47.725 15.9896C47.9731 16.007 48.2179 15.925 48.4056 15.7619L52.6843 12.0434C52.7773 11.9626 52.8534 11.8643 52.9083 11.7541C52.9632 11.6439 52.9959 11.5239 53.0045 11.4011C53.0131 11.2783 52.9974 11.1549 52.9583 11.0382C52.9192 10.9214 52.8575 10.8135 52.7767 10.7205C52.6959 10.6276 52.5976 10.5515 52.4874 10.4966C52.3772 10.4416 52.2573 10.4089 52.1344 10.4004C52.0116 10.3918 51.8883 10.4075 51.7715 10.4465C51.6547 10.4856 51.5468 10.5473 51.4539 10.6281Z" fill="#965EEB"/>
<path d="M11.9827 15.3444C12.17 15.3444 12.3531 15.2883 12.5083 15.1833C12.6634 15.0783 12.7836 14.9292 12.8532 14.7553C12.9228 14.5814 12.9388 14.3906 12.8989 14.2075C12.8591 14.0244 12.7653 13.8575 12.6297 13.7283L8.57815 9.86598C8.48904 9.78104 8.38407 9.71447 8.26923 9.67009C8.1544 9.62571 8.03194 9.60438 7.90886 9.60732C7.78578 9.61027 7.66449 9.63742 7.5519 9.68724C7.43932 9.73706 7.33765 9.80857 7.2527 9.89768C7.16775 9.9868 7.10119 10.0918 7.05681 10.2066C7.01243 10.3214 6.9911 10.4439 6.99404 10.567C6.99699 10.6901 7.02414 10.8113 7.07396 10.9239C7.12378 11.0365 7.19529 11.1382 7.2844 11.2231L11.3359 15.0854C11.51 15.2519 11.7418 15.3447 11.9827 15.3444Z" fill="#965EEB"/>
<path d="M40.92 29.0017C42.5699 26.303 42.8576 23.9108 41.7301 22.266C40.6026 20.6211 38.2679 20.0269 35.1559 20.5924C35.1207 20.5988 35.0856 20.6068 35.0511 20.6134C35.0369 20.5811 35.0236 20.5472 35.0092 20.5151C33.716 17.6284 31.9056 16.0385 29.9115 16.0385C29.7823 16.0392 29.6532 16.0467 29.5248 16.0609C28.9824 15.5762 28.2814 15.3067 27.554 15.3033C26.8266 15.2998 26.1231 15.5625 25.5761 16.042C25.029 16.5215 24.6763 17.1845 24.5845 17.9061C24.4926 18.6276 24.6679 19.3579 25.0773 19.9592C24.9713 20.1706 24.869 20.3886 24.7704 20.6132C24.7359 20.6067 24.7009 20.5986 24.6667 20.5924C21.5545 20.027 19.2196 20.6214 18.0925 22.266C16.9653 23.9106 17.2527 26.303 18.9026 29.0017C19.181 29.4572 19.494 29.914 19.8375 30.3695C19.811 30.4045 19.7847 30.4397 19.7586 30.475C19.0855 30.3294 18.3827 30.4216 17.7698 30.7358C17.157 31.0499 16.6719 31.5667 16.397 32.1981C16.1221 32.8296 16.0745 33.5368 16.2622 34.1994C16.4499 34.862 16.8614 35.4392 17.4266 35.8327C17.368 36.8399 17.5929 37.7417 18.092 38.4694C18.9414 39.7085 20.4759 40.3514 22.5119 40.3514C23.2349 40.3464 23.956 40.2767 24.6666 40.1431C24.7011 40.1367 24.7369 40.1286 24.7713 40.1221C24.7855 40.1544 24.7989 40.1882 24.8133 40.2203C26.1064 43.1071 27.9169 44.6968 29.9109 44.6968C31.905 44.6968 33.7154 43.107 35.0086 40.2203C35.0229 40.1882 35.0362 40.1544 35.0505 40.1221C35.0857 40.1286 35.1209 40.1367 35.1553 40.1431C35.8658 40.2768 36.5868 40.3465 37.3098 40.3514C39.3456 40.3514 40.8806 39.7084 41.7299 38.4694C42.2103 37.7691 42.4367 36.9066 42.4004 35.945C43.0182 35.5756 43.4813 34.995 43.7043 34.3106C43.9272 33.6262 43.895 32.8843 43.6134 32.2218C43.3318 31.5594 42.8199 31.0212 42.1724 30.7069C41.5249 30.3925 40.7855 30.3231 40.0908 30.5115C40.0556 30.464 40.0205 30.4164 39.9853 30.3689C40.3288 29.9136 40.6417 29.457 40.92 29.0017ZM33.8838 37.9109C33.2476 37.7217 32.6213 37.5007 32.0073 37.2486C32.6206 36.8886 33.2292 36.5022 33.8332 36.0893C34.0499 35.9409 34.2635 35.7901 34.474 35.6371C34.3216 36.4058 34.1245 37.165 33.8838 37.9109ZM25.9355 37.9093C25.6959 37.164 25.5 36.4054 25.3486 35.6373C25.5595 35.7898 25.773 35.9405 25.9891 36.0893C26.5915 36.5022 27.2 36.8886 27.8147 37.2484C27.1997 37.5001 26.5726 37.7207 25.9355 37.9093ZM22.985 31.1516C22.7325 30.8925 22.4903 30.6318 22.2585 30.3697C22.4897 30.1081 22.7314 29.8479 22.9836 29.5892C22.9771 29.8474 22.9739 30.107 22.9738 30.3677C22.9744 30.6302 22.9786 30.8913 22.985 31.1516ZM27.0493 34.5428C26.318 34.0415 25.6218 33.5156 24.9662 32.9732C24.8894 32.1259 24.849 31.2544 24.849 30.3677C24.849 29.4811 24.8886 28.6115 24.9649 27.7662C25.6234 27.22 26.3202 26.692 27.0489 26.1925C27.9678 25.561 28.9231 24.9844 29.91 24.4655C30.8973 24.9845 31.8532 25.5612 32.7728 26.1925C33.5016 26.6922 34.198 27.2197 34.856 27.7654C34.9326 28.6116 34.9725 29.482 34.9725 30.3669C34.9725 31.2708 34.9318 32.1408 34.8565 32.9718C34.2008 33.5145 33.5043 34.0404 32.7728 34.5421C31.854 35.1735 30.8988 35.7503 29.9122 36.2694C28.9249 35.7504 27.969 35.1739 27.0493 34.5428ZM25.9336 22.8229C26.5717 23.0124 27.1998 23.234 27.8155 23.4868C27.2023 23.8468 26.5937 24.2333 25.9896 24.6462C25.772 24.7954 25.5579 24.9477 25.3451 25.1015C25.4966 24.3311 25.6931 23.5703 25.9336 22.8229ZM33.8875 22.8268C34.1269 23.5722 34.3228 24.3308 34.4742 25.0989C34.2633 24.946 34.0497 24.7951 33.8335 24.6462C33.2314 24.2333 32.6214 23.8471 32.0084 23.4872C32.6231 23.2357 33.2501 23.0153 33.887 22.8268H33.8875ZM36.8378 29.5877C37.0902 29.8467 37.3324 30.1073 37.5643 30.3694C37.3328 30.6317 37.0906 30.8924 36.8378 31.1516C36.8442 30.8913 36.8484 30.6302 36.8484 30.3677C36.8484 30.1052 36.8437 29.8466 36.8373 29.5877H36.8378ZM40.1836 23.3262C40.8582 24.3106 40.5436 26.0227 39.3203 28.0238C39.145 28.3102 38.9548 28.5974 38.7494 28.8853C38.0861 28.1592 37.3824 27.4711 36.6416 26.8242C36.4718 25.3255 36.1628 23.8458 35.7187 22.4043C37.9056 22.0526 39.5399 22.387 40.1836 23.3262ZM33.202 21.0734C32.074 21.4219 30.9739 21.8552 29.9112 22.3696C29.0086 21.9339 28.0796 21.5553 27.1297 21.2359C27.5519 21.2953 27.982 21.2634 28.3908 21.1423C28.7997 21.0211 29.1777 20.8136 29.4994 20.5338C29.8211 20.2539 30.0789 19.9082 30.2555 19.5201C30.432 19.132 30.5232 18.7105 30.5228 18.2841C30.5228 18.1934 30.518 18.1038 30.5101 18.0152C31.4689 18.336 32.4204 19.4087 33.202 21.0734ZM27.5419 17.1781C27.7606 17.178 27.9745 17.2429 28.1564 17.3644C28.3383 17.4859 28.48 17.6586 28.5638 17.8607C28.6475 18.0628 28.6694 18.2852 28.6268 18.4998C28.5841 18.7143 28.4788 18.9114 28.3241 19.0661C28.1694 19.2208 27.9723 19.3261 27.7578 19.3688C27.5433 19.4115 27.3209 19.3896 27.1188 19.3059C26.9167 19.2222 26.7439 19.0804 26.6224 18.8986C26.5008 18.7167 26.436 18.5028 26.436 18.2841C26.4363 17.9909 26.5529 17.7098 26.7602 17.5025C26.9675 17.2951 27.2486 17.1785 27.5417 17.1781H27.5419ZM20.5022 28.0238C19.2789 26.0227 18.9642 24.3104 19.6389 23.3262C20.2909 22.375 21.9123 22.0426 24.1037 22.3998C23.6593 23.8432 23.3499 25.3248 23.1797 26.8254C22.4393 27.4719 21.7358 28.1596 21.0725 28.8851C20.8679 28.5975 20.6779 28.3104 20.5022 28.0238ZM19.1311 32.2827C19.3498 32.2827 19.5637 32.3475 19.7456 32.469C19.9275 32.5906 20.0693 32.7633 20.153 32.9654C20.2367 33.1675 20.2586 33.3899 20.216 33.6044C20.1733 33.819 20.068 34.0161 19.9133 34.1708C19.7586 34.3254 19.5616 34.4308 19.347 34.4735C19.1325 34.5162 18.9101 34.4943 18.708 34.4106C18.5059 34.3268 18.3331 34.1851 18.2116 34.0032C18.0901 33.8213 18.0252 33.6075 18.0252 33.3887C18.0255 33.0956 18.1421 32.8146 18.3493 32.6072C18.5565 32.3999 18.8375 32.2832 19.1306 32.2827H19.1311ZM22.5169 38.4689C21.1341 38.4689 20.1155 38.1041 19.6392 37.4093C19.4346 37.0977 19.3175 36.7368 19.3003 36.3645C19.7197 36.3411 20.1293 36.2293 20.5024 36.0364C20.8755 35.8435 21.2035 35.5738 21.465 35.2451C21.7264 34.9164 21.9154 34.536 22.0194 34.1291C22.1234 33.7222 22.1401 33.2979 22.0685 32.884C22.4241 33.232 22.7952 33.5753 23.1818 33.9137C23.3516 35.4118 23.6606 36.8909 24.1046 38.3317C23.5797 38.4195 23.0486 38.4654 22.5164 38.4689H22.5169ZM29.9114 42.822C28.7575 42.822 27.5651 41.6735 26.6205 39.6621C27.7486 39.3136 28.8487 38.8803 29.9114 38.3658C30.9724 38.8794 32.0706 39.3122 33.1966 39.6605C32.25 41.6639 31.0499 42.822 29.9112 42.822H29.9114ZM35.7175 38.3354C36.1621 36.8935 36.4714 35.4133 36.6415 33.914C37.1089 33.5051 37.5555 33.0883 37.9774 32.6651C37.8744 33.0763 37.8603 33.5048 37.9361 33.9219C38.0119 34.339 38.1758 34.7351 38.4169 35.0838C38.658 35.4325 38.9707 35.7257 39.3342 35.9439C39.6977 36.1621 40.1035 36.3003 40.5246 36.3491C40.5091 36.7269 40.3912 37.0934 40.1834 37.4093C39.5313 38.3608 37.9091 38.6931 35.7172 38.3354H35.7175ZM41.9753 33.3887C41.9753 33.6075 41.9104 33.8213 41.7889 34.0032C41.6673 34.1851 41.4946 34.3268 41.2925 34.4106C41.0904 34.4943 40.868 34.5162 40.6534 34.4735C40.4389 34.4308 40.2418 34.3254 40.0871 34.1708C39.9325 34.0161 39.8271 33.819 39.7845 33.6044C39.7418 33.3899 39.7637 33.1675 39.8475 32.9654C39.9312 32.7633 40.073 32.5906 40.2549 32.469C40.4368 32.3475 40.6506 32.2827 40.8694 32.2827C41.1626 32.283 41.4437 32.3997 41.651 32.607C41.8583 32.8144 41.975 33.0955 41.9753 33.3887Z" fill="#965EEB"/>
<path d="M29.9112 27.3867C29.3216 27.3867 28.7452 27.5615 28.255 27.8891C27.7648 28.2166 27.3826 28.6822 27.157 29.2269C26.9314 29.7716 26.8723 30.371 26.9873 30.9492C27.1023 31.5275 27.3862 32.0587 27.8031 32.4756C28.22 32.8925 28.7512 33.1764 29.3295 33.2915C29.9077 33.4065 30.5071 33.3475 31.0518 33.1218C31.5965 32.8962 32.0621 32.5141 32.3897 32.0239C32.7172 31.5337 32.8921 30.9573 32.8921 30.3677C32.8912 29.5774 32.5769 28.8197 32.018 28.2608C31.4592 27.702 30.7015 27.3876 29.9112 27.3867ZM29.9112 31.4736C29.6924 31.4737 29.4786 31.4088 29.2967 31.2873C29.1148 31.1658 28.973 30.993 28.8893 30.7909C28.8055 30.5888 28.7836 30.3664 28.8263 30.1519C28.869 29.9373 28.9743 29.7402 29.129 29.5855C29.2837 29.4309 29.4808 29.3255 29.6953 29.2828C29.9099 29.2402 30.1323 29.2621 30.3344 29.3458C30.5365 29.4295 30.7092 29.5713 30.8307 29.7532C30.9523 29.9351 31.0171 30.149 31.0171 30.3677C31.0167 30.6609 30.9001 30.942 30.6928 31.1493C30.4855 31.3566 30.2044 31.4733 29.9112 31.4736Z" fill="#965EEB"/>
</svg>
