<svg width="40" height="41" viewBox="0 0 40 41" fill="none" xmlns="http://www.w3.org/2000/svg">
<g clip-path="url(#clip0_174_61)">
<path d="M10.6153 22.4504L0.789459 18.151C-0.317885 17.6668 -0.242963 16.0712 0.905162 15.6935L38.2691 3.37605C39.2466 3.0541 40.1992 3.92676 39.9638 4.92926L32.4973 36.6754C32.2743 37.6239 31.1346 38.0107 30.3809 37.3934L21.6074 30.2147L10.6153 22.4504Z" fill="white"/>
<path d="M30.9737 10.2313L10.6152 22.4502L13.1062 34.0048C13.3297 35.0414 14.5516 35.4983 15.4003 34.8627L21.6074 30.2145L16.5002 26.0349L31.617 11.0589C32.0602 10.6197 31.5088 9.9101 30.9737 10.2313Z" fill="#E4E4E4"/>
<path d="M13.9277 35.0232C14.3854 35.2301 14.9463 35.203 15.4004 34.8629L21.6075 30.2147L19.0539 28.1249L16.5003 26.0352L13.9277 35.0232Z" fill="#D3D3D3"/>
</g>
<defs>
<clipPath id="clip0_174_61">
<rect width="40" height="40" fill="white" transform="translate(0 0.5)"/>
</clipPath>
</defs>
</svg>
