<svg width="61" height="60" viewBox="0 0 61 60" fill="none" xmlns="http://www.w3.org/2000/svg">
<g clip-path="url(#clip0_51_2579)">
<path d="M56.3375 30.0073C57.6 27.4905 58.5938 24.9605 59.2837 22.4675C61.4466 14.6562 60.3992 8.11522 56.3338 4.05027C52.2689 -0.0146761 45.7279 -1.0625 37.9166 1.10044C35.4236 1.79029 32.8936 2.78455 30.3768 4.04661C27.2457 2.4751 24.11 1.3252 21.0887 0.662815C14.0712 -0.875273 8.15644 0.327731 4.43436 4.05027C2.04529 6.43934 0.659638 9.79613 0.428009 13.7581C0.219726 17.3222 0.942078 21.4123 2.51633 25.6256C1.2236 26.6478 0.391846 28.228 0.391846 30C0.391846 31.772 1.2236 33.3522 2.51633 34.3744C0.942078 38.5877 0.219726 42.6782 0.428009 46.2419C0.660095 50.2039 2.04529 53.5607 4.43436 55.9497C7.10221 58.618 10.8453 59.9936 15.3667 59.9936C16.2744 59.9936 17.2138 59.9382 18.1824 59.8265C22.0592 59.3793 26.2015 58.0587 30.3827 55.9562C32.8977 57.2173 35.4259 58.2102 37.9166 58.8996C40.5748 59.6357 43.0861 60 45.4029 60C49.8931 60 53.6523 58.6313 56.3338 55.9497C60.0564 52.2277 61.2594 46.3129 59.7213 39.2949C59.0589 36.2741 57.909 33.1384 56.3375 30.0073ZM38.3863 2.79737C45.5599 0.81113 51.4916 1.69828 55.0887 5.29539C58.6858 8.8925 59.573 14.8242 57.5867 21.9978C57.0306 24.0074 56.2665 26.0445 55.3162 28.0797C53.6133 25.0259 51.5191 22.0001 49.0925 19.1139C49.8359 18.1663 50.2808 16.9739 50.2808 15.6789C50.2808 14.4269 49.8757 13.244 49.1085 12.258L47.7187 13.3388C48.2433 14.013 48.5203 14.8224 48.5203 15.6789C48.5203 17.7827 46.8087 19.4939 44.7053 19.4939C42.6018 19.4939 40.8902 17.7827 40.8902 15.6789C40.8902 13.575 42.6018 11.8638 44.7053 11.8638C45.3919 11.8638 46.0653 12.0479 46.6517 12.3967L47.5516 10.8833C46.6929 10.3729 45.7087 10.1028 44.7053 10.1028C43.4102 10.1028 42.2178 10.5482 41.2706 11.2916C38.384 8.86503 35.3582 6.77076 32.3044 5.06742C34.3396 4.11756 36.3767 3.35355 38.3863 2.79737ZM5.67948 5.29539C10.4398 0.535099 19.1684 0.712711 28.4565 5.06239C23.9223 7.59108 19.4751 10.9772 15.418 15.0339C12.4095 18.0423 9.76182 21.2736 7.53755 24.6469C7.03629 24.5013 6.50895 24.424 5.96787 24.424C5.30183 24.424 4.66324 24.5421 4.07044 24.7568C1.0199 16.4424 1.59119 9.38322 5.67948 5.29539ZM15.4125 58.2267C11.4295 58.2267 8.04337 57.0685 5.67902 54.7046C1.59119 50.6168 1.01944 43.5581 4.07044 35.2432C4.66324 35.4584 5.30183 35.576 5.96787 35.576C6.51215 35.576 7.03767 35.4959 7.53571 35.3499C9.75999 38.7245 12.4086 41.9568 15.418 44.9661C19.4737 49.0215 23.9196 52.4066 28.4523 54.9353C23.7964 57.1143 19.3172 58.2271 15.4125 58.2267ZM30.3791 53.9772C25.6234 51.4792 20.9271 47.9846 16.6631 43.721C13.7979 40.8554 11.2706 37.7847 9.13972 34.5822C10.5908 33.5747 11.5434 31.897 11.5434 30.0005C11.5434 29.8352 11.5366 29.6681 11.5219 29.5038L9.76777 29.659C9.77784 29.7716 9.78288 29.886 9.78288 30C9.78288 32.1039 8.0713 33.815 5.96787 33.815C3.86445 33.815 2.15286 32.1039 2.15286 30C2.15286 27.8961 3.86445 26.185 5.96787 26.185C7.42082 26.185 8.72865 26.9925 9.3805 28.2921L10.9543 27.5029C10.524 26.6446 9.89686 25.9337 9.14338 25.4114C11.2738 22.2116 13.7998 19.1423 16.6631 16.279C20.9281 12.014 25.6261 8.51851 30.3832 6.02049C33.621 7.72474 36.8967 9.92201 40.0704 12.583C39.4762 13.4692 39.1292 14.534 39.1292 15.6789C39.1292 18.7532 41.6309 21.2544 44.7053 21.2544C45.8501 21.2544 46.9149 20.9074 47.8011 20.3133C50.4621 23.4869 52.6589 26.7632 54.3632 30.0005C51.8651 34.7575 48.3697 39.4556 44.1051 43.721C43.6359 44.1898 43.1539 44.6558 42.6668 45.1122C41.695 44.29 40.4403 43.7929 39.0706 43.7929C37.8186 43.7929 36.6358 44.1985 35.6498 44.9652L36.731 46.355C37.4048 45.8309 38.2142 45.5539 39.0706 45.5535C41.1741 45.5535 42.8856 47.265 42.8856 49.3685C42.8856 51.4724 41.1741 53.1835 39.0706 53.1835C36.9672 53.1835 35.2556 51.4724 35.2556 49.3685C35.2556 48.6818 35.4396 48.0089 35.7885 47.4225L34.2751 46.5221C33.7647 47.3809 33.4946 48.365 33.4946 49.3685C33.4946 50.252 33.702 51.0869 34.0691 51.8299C32.8354 52.6172 31.6031 53.3332 30.3791 53.9772ZM55.0887 54.7046C51.4916 58.3022 45.5599 59.1889 38.3863 57.2031C36.3781 56.6469 34.3428 55.8838 32.309 54.9344C33.2364 54.4162 34.1643 53.8601 35.0895 53.2677C36.1025 54.3013 37.5124 54.9445 39.0706 54.9445C42.145 54.9445 44.6467 52.4433 44.6467 49.3689C44.6467 48.2982 44.3427 47.298 43.8176 46.4475C44.3368 45.9618 44.8504 45.4656 45.3498 44.9661C49.407 40.9085 52.7926 36.4613 55.3217 31.9272C59.6714 41.2157 59.849 49.9443 55.0887 54.7046Z" fill="#965EEB"/>
<path d="M44.8225 39.0977H43.0033V34.6615C43.0033 32.6995 41.6845 30.9572 39.7962 30.4244L39.138 30.239L38.6601 31.9337L39.3183 32.1195C40.4509 32.439 41.2423 33.4841 41.2423 34.6615V39.0977H38.0728V36.6912H36.3122V39.0977H28.3883V40.8582H44.8225V39.0977Z" fill="#965EEB"/>
<path d="M33.296 30.4207L36.9654 31.4561L37.4438 29.761L33.8471 28.7466V26.4084C35.4754 25.2978 36.547 23.4288 36.547 21.3135V18.7308C36.547 15.3328 33.7826 12.5679 30.3841 12.5679C26.9862 12.5679 24.2213 15.3328 24.2213 18.7308V21.3135C24.2213 23.4288 25.2929 25.2978 26.9212 26.4084V28.7466L20.9721 30.4243C19.0838 30.9572 17.765 32.6994 17.765 34.6614V39.0976H15.9458V40.8582H26.6277V39.0976H24.4561V36.6911H22.6955V39.0976H19.526V34.6614C19.526 33.484 20.3174 32.439 21.45 32.1194L27.4723 30.4211C28.2139 31.2323 29.2612 31.7024 30.3841 31.7024C31.507 31.7024 32.5549 31.2318 33.296 30.4207ZM30.3841 14.3289C32.8112 14.3289 34.786 16.3037 34.786 18.7312V19.7117L32.9353 17.2636H26.2345C26.8401 15.5557 28.4711 14.3289 30.3841 14.3289ZM25.9823 21.3135V19.0246H32.0591L34.64 22.4377C34.1415 24.3223 32.4226 25.7153 30.3841 25.7153C27.9571 25.7153 25.9823 23.7405 25.9823 21.3135ZM28.6822 29.1289V27.2351C29.2228 27.3912 29.7936 27.4763 30.3841 27.4763C30.9747 27.4763 31.545 27.3912 32.0861 27.2351V29.1289C31.6723 29.6411 31.0525 29.9414 30.3841 29.9414C29.7158 29.9414 29.0955 29.6411 28.6822 29.1289Z" fill="#965EEB"/>
<path d="M35.0341 34.5699L32.554 33.8704L33.0323 32.1758L35.512 32.8752L35.0341 34.5699Z" fill="#965EEB"/>
<path d="M38.8994 33.8279L38.4211 35.5225L36.7264 35.0446L37.2048 33.35L38.8994 33.8279Z" fill="#965EEB"/>
<path d="M43.825 14.7986H45.5855V16.5596H43.825V14.7986Z" fill="#965EEB"/>
<path d="M38.1903 48.4886H39.9509V50.2492H38.1903V48.4886Z" fill="#965EEB"/>
<path d="M5.08716 29.1198H6.84818V30.8803H5.08716V29.1198Z" fill="#965EEB"/>
</g>
<defs>
<clipPath id="clip0_51_2579">
<rect width="59.8829" height="60" fill="white" transform="translate(0.333252)"/>
</clipPath>
</defs>
</svg>
