<svg width="237" height="60" viewBox="0 0 237 60" fill="none" xmlns="http://www.w3.org/2000/svg">
<g clip-path="url(#clip0_86_217)">
<path d="M90.3938 1.40526L69.9915 54.5842H80.9603L85.1864 43.4842H106.839L111.049 54.5842H121.923L101.616 1.40526H90.3938ZM88.9059 33.7263L96.0444 15.0158L103.135 33.7263H88.9059Z" fill="white"/>
<path d="M217.065 16.5632C213.235 16.5632 209.484 17.7 206.287 19.8158C203.105 21.9474 200.62 24.9632 199.148 28.5C197.676 32.0368 197.296 35.9211 198.04 39.6789C198.784 43.4368 200.636 46.8789 203.343 49.5789C206.049 52.2789 209.515 54.1263 213.267 54.8684C217.034 55.6105 220.927 55.2316 224.473 53.7632C228.018 52.2947 231.042 49.8158 233.178 46.6421C235.315 43.4684 236.455 39.7263 236.455 35.8895C236.455 30.7579 234.413 25.8316 230.773 22.2158C227.148 18.6 222.21 16.5632 217.065 16.5632ZM217.065 45.3316C215.198 45.3316 213.378 44.7789 211.811 43.7368C210.259 42.6947 209.041 41.2263 208.328 39.5053C207.616 37.7842 207.426 35.8895 207.79 34.0579C208.154 32.2263 209.056 30.5526 210.37 29.2263C211.7 27.9158 213.378 27.0158 215.214 26.6526C217.05 26.2895 218.949 26.4789 220.674 27.1895C222.399 27.9 223.872 29.1158 224.916 30.6632C225.945 32.2105 226.499 34.0421 226.499 35.9053C226.499 37.1368 226.262 38.3684 225.787 39.5211C225.312 40.6579 224.615 41.7 223.745 42.5842C222.874 43.4526 221.83 44.1474 220.674 44.6211C219.535 45.0947 218.3 45.3316 217.065 45.3316Z" fill="white"/>
<path d="M135.013 40.8632L126.149 17.2263H115.687L129.932 54.5842H140.3L154.323 17.2263H143.861L135.013 40.8632Z" fill="white"/>
<path d="M187.214 7.29474H177.258V17.2263H171.433V26.1474H177.258V42.0474C177.258 51.0474 182.228 54.9158 189.24 54.9158C191.614 54.9474 193.972 54.4895 196.157 53.5737V44.3211C194.97 44.7632 193.703 44.9842 192.437 45C189.414 45 187.214 43.8158 187.214 39.7895V26.1474H196.157V17.2263H187.214V7.29474Z" fill="white"/>
<path d="M162.506 14.5421C166.511 14.5421 169.755 11.3053 169.755 7.31053C169.755 3.31579 166.511 0.078949 162.506 0.078949C158.502 0.078949 155.257 3.31579 155.257 7.31053C155.241 11.2895 158.486 14.5421 162.506 14.5421Z" fill="white"/>
<path d="M167.476 17.2263H157.521V54.5842H167.476V17.2263Z" fill="white"/>
<path d="M19.4685 59.8895C30.1841 59.8895 38.8737 51.2211 38.8737 40.5316C38.8737 29.8421 30.1841 21.1737 19.4685 21.1737C8.75294 21.1895 0.0633545 29.8421 0.0633545 40.5316C0.0633545 51.2211 8.75294 59.8895 19.4685 59.8895Z" fill="#04E061"/>
<path d="M53.1188 57.4421C59.5925 57.4421 64.8474 52.2 64.8474 45.7421C64.8474 39.2842 59.5925 34.0421 53.1188 34.0421C46.6452 34.0421 41.3903 39.2842 41.3903 45.7421C41.3903 52.2 46.6452 57.4421 53.1188 57.4421Z" fill="#FF4053"/>
<path d="M23.1722 18.6632C27.1767 18.6632 30.4214 15.4263 30.4214 11.4316C30.4214 7.43684 27.1767 4.2 23.1722 4.2C19.1677 4.2 15.923 7.43684 15.923 11.4316C15.923 15.4263 19.1677 18.6632 23.1722 18.6632Z" fill="#965EEB"/>
<path d="M48.5604 31.5316C57.2658 31.5316 64.3251 24.4895 64.3251 15.8053C64.3251 7.12105 57.2658 0.078949 48.5604 0.078949C39.8549 0.078949 32.7957 7.12105 32.7957 15.8053C32.7957 24.4895 39.8549 31.5316 48.5604 31.5316Z" fill="#00AAFF"/>
</g>
<defs>
<clipPath id="clip0_86_217">
<rect width="236.471" height="60" fill="white"/>
</clipPath>
</defs>
</svg>
