<svg width="397" height="80" viewBox="0 0 397 80" fill="none" xmlns="http://www.w3.org/2000/svg">
<path d="M15.1266 36.3231C6.77431 36.3231 0 43.0974 0 51.4497C0 59.802 6.77431 66.5763 15.1266 66.5763C23.4789 66.5763 30.2459 59.802 30.2459 51.4497C30.2459 43.0974 23.4716 36.3231 15.1266 36.3231Z" fill="#04E061"/>
<path d="M37.8129 44.411C44.5872 44.411 50.1138 38.8917 50.1138 32.1101C50.1138 25.3284 44.5872 19.8165 37.8129 19.8165C31.0386 19.8165 25.5193 25.3431 25.5193 32.1101C25.5193 38.8771 31.0459 44.411 37.8129 44.411Z" fill="#00AAFF"/>
<path d="M41.3652 46.3855C36.3009 46.3855 32.2202 50.4662 32.2202 55.5304C32.2202 60.5946 36.3009 64.6754 41.3652 64.6754C46.4294 64.6754 50.5101 60.5946 50.5101 55.5304C50.5101 50.4662 46.4294 46.3855 41.3652 46.3855Z" fill="#FF4053"/>
<path d="M18.0183 34.3485C21.1743 34.3485 23.677 31.7797 23.677 28.6898C23.677 25.5999 21.1743 23.0311 18.0183 23.0311C14.8624 23.0311 12.3596 25.5339 12.3596 28.6898C12.3596 31.8458 14.9284 34.3485 18.0183 34.3485Z" fill="#965EEB"/>
<path d="M169.211 55.2001C165.13 55.2001 161.842 51.912 161.842 47.8313C161.842 43.7505 165.13 40.4625 169.211 40.4625C173.292 40.4625 176.58 43.7505 176.58 47.8313C176.58 51.912 173.292 55.2001 169.211 55.2001ZM169.211 32.7047C160.859 32.7047 154.084 39.479 154.084 47.8313C154.084 56.1836 160.859 62.9579 169.211 62.9579C177.563 62.9579 184.338 56.1175 184.338 47.8313C184.338 39.545 177.563 32.7047 169.211 32.7047Z" fill="white"/>
<path d="M105.226 51.7136L98.3193 33.2329H90.1652L101.277 62.4366H109.365L120.286 33.2329H112.125L105.226 51.7136Z" fill="white"/>
<path d="M145.93 25.4752H138.172V33.233H133.637V40.2055H138.172V52.6312C138.172 59.6697 142.048 62.6936 147.508 62.6936C149.615 62.6936 151.391 62.2973 152.903 61.644V54.4073C152.903 54.4073 151.589 54.9358 150.011 54.9358C147.64 54.9358 145.93 54.011 145.93 50.8551V40.1982H152.903V33.2257H145.93V25.4752Z" fill="white"/>
<path d="M126.664 19.8165C123.574 19.8165 121.005 22.3853 121.005 25.4752C121.005 28.5651 123.574 31.1339 126.664 31.1339C129.754 31.1339 132.316 28.6312 132.316 25.4752C132.316 22.3193 129.82 19.8165 126.664 19.8165Z" fill="white"/>
<path d="M130.539 33.2329H122.782V62.4292H130.539V33.2329Z" fill="white"/>
<path d="M69.2697 46.1286L74.8331 31.5011L80.367 46.1286H69.2697ZM70.4294 20.8809L54.5175 62.4442H63.0679L66.3707 53.7616H83.2587L86.5468 62.4442H95.0312L79.178 20.8809H70.4294Z" fill="white"/>
<path d="M15.1266 36.3231C6.77431 36.3231 0 43.0974 0 51.4497C0 59.802 6.77431 66.5763 15.1266 66.5763C23.4789 66.5763 30.2459 59.802 30.2459 51.4497C30.2459 43.0974 23.4716 36.3231 15.1266 36.3231Z" fill="#04E061"/>
<path d="M37.8129 44.411C44.5872 44.411 50.1138 38.8844 50.1138 32.1101C50.1138 25.3358 44.5872 19.8165 37.8129 19.8165C31.0386 19.8165 25.5193 25.3431 25.5193 32.1101C25.5193 38.8771 31.0459 44.411 37.8129 44.411Z" fill="#00AAFF"/>
<path d="M41.3652 46.3855C36.3009 46.3855 32.2202 50.4589 32.2202 55.5231C32.2202 60.5873 36.3009 64.668 41.3652 64.668C46.4294 64.668 50.5101 60.5946 50.5101 55.5231C50.5101 50.4515 46.4294 46.3855 41.3652 46.3855Z" fill="#FF4053"/>
<path d="M18.0183 34.3487C21.1743 34.3487 23.677 31.7872 23.677 28.69C23.677 25.5927 21.1743 23.0386 18.0183 23.0386C14.8624 23.0386 12.3596 25.5414 12.3596 28.69C12.3596 31.8386 14.9284 34.3487 18.0183 34.3487Z" fill="#965EEB"/>
<path d="M169.211 55.2001C165.13 55.2001 161.842 51.912 161.842 47.8386C161.842 43.7652 165.13 40.4698 169.211 40.4698C173.292 40.4698 176.58 43.7579 176.58 47.8386C176.58 51.9193 173.292 55.2001 169.211 55.2001ZM169.211 32.7047C160.859 32.7047 154.084 39.479 154.084 47.8313C154.084 56.1836 160.859 62.9579 169.211 62.9579C177.563 62.9579 184.338 56.1175 184.338 47.8313C184.338 39.545 177.563 32.7047 169.211 32.7047Z" fill="white"/>
<path d="M105.226 51.7136L98.3193 33.2329H90.1652L101.277 62.4292H109.365L120.286 33.2329H112.125L105.226 51.7136Z" fill="white"/>
<path d="M145.93 25.4752H138.172V33.233H133.637V40.2055H138.172V52.6312C138.172 59.6697 142.048 62.6936 147.508 62.6936C149.615 62.6936 151.391 62.2973 152.903 61.644V54.4073C152.903 54.4073 151.589 54.9358 150.011 54.9358C147.64 54.9358 145.93 54.0184 145.93 50.8551V40.2055H152.903V33.233H145.93V25.4752Z" fill="white"/>
<path d="M126.664 19.8165C123.574 19.8165 121.005 22.378 121.005 25.4752C121.005 28.5725 123.574 31.1266 126.664 31.1266C129.754 31.1266 132.316 28.6312 132.316 25.4752C132.316 22.3193 129.82 19.8165 126.664 19.8165Z" fill="white"/>
<path d="M130.539 33.2329H122.782V62.4366H130.539V33.2329Z" fill="white"/>
<path d="M69.2697 46.1286L74.8331 31.5011L80.367 46.1286H69.2697ZM70.4294 20.8809L54.5175 62.4442H63.0679L66.3707 53.7616H83.2587L86.5468 62.4442H95.0312L79.178 20.8809H70.4294Z" fill="white"/>
<path d="M223.125 22.1828H230.03L214.309 53.5633C213.405 55.3717 212.583 56.8925 211.843 58.1255C211.144 59.3174 210.384 60.2833 209.562 61.0231C208.74 61.7629 207.815 62.2973 206.787 62.6261C205.76 62.9549 204.506 63.1193 203.027 63.1193H198.156V56.8925H202.225C203.54 56.8925 204.609 56.6459 205.431 56.1527C206.294 55.6184 207.014 54.7141 207.589 53.44L208.205 52.0837L192.854 22.1828H199.882L211.596 44.9321L223.125 22.1828ZM250.248 43.2675C249.508 42.0756 248.522 41.1714 247.289 40.5549C246.056 39.8972 244.699 39.5684 243.22 39.5684C241.946 39.5684 240.774 39.7945 239.706 40.2466C238.637 40.6987 237.712 41.3358 236.931 42.1578C236.191 42.9798 235.596 43.9457 235.143 45.0554C234.732 46.1651 234.527 47.3776 234.527 48.6928C234.527 50.0081 234.732 51.2206 235.143 52.3303C235.596 53.44 236.191 54.4059 236.931 55.2279C237.712 56.0499 238.637 56.7075 239.706 57.2007C240.774 57.6528 241.946 57.8789 243.22 57.8789C244.699 57.8789 246.056 57.5706 247.289 56.9541C248.522 56.2965 249.508 55.3717 250.248 54.1798H257.091C256.557 55.6595 255.838 57.0158 254.933 58.2488C254.029 59.4407 252.961 60.4683 251.728 61.3314C250.536 62.1534 249.22 62.7905 247.782 63.2426C246.343 63.6947 244.823 63.9207 243.22 63.9207C241.041 63.9207 239.027 63.5508 237.178 62.811C235.328 62.0301 233.725 60.9615 232.369 59.6051C231.013 58.2488 229.944 56.6459 229.163 54.7963C228.382 52.9057 227.992 50.8712 227.992 48.6928C227.992 46.5145 228.382 44.5006 229.163 42.651C229.944 40.8015 231.013 39.1985 232.369 37.8422C233.725 36.4859 235.328 35.4378 237.178 34.698C239.027 33.9171 241.041 33.5266 243.22 33.5266C244.823 33.5266 246.343 33.7527 247.782 34.2048C249.22 34.6569 250.536 35.3145 251.728 36.1776C252.961 36.9996 254.029 38.0272 254.933 39.2602C255.838 40.4521 256.557 41.7879 257.091 43.2675H250.248ZM291.34 34.3281V63.1193H284.805V40.0617H274.016V46.4117C274.016 48.2202 273.913 50.1108 273.708 52.0837C273.502 54.0565 273.03 55.865 272.29 57.509C271.55 59.153 270.461 60.5094 269.022 61.578C267.625 62.6055 265.714 63.1193 263.289 63.1193H260.884V57.0158H262.549C263.741 57.0158 264.666 56.6664 265.323 55.9677C266.022 55.269 266.515 54.4059 266.803 53.3783C267.132 52.3097 267.317 51.1589 267.358 49.9259C267.44 48.6517 267.481 47.4393 267.481 46.2884V34.3281H291.34ZM296.572 34.3281H303.847L312.91 54.4881L321.911 34.3281H328.878L315.191 64.6606C314.205 66.7978 313.362 68.5651 312.663 69.9626C311.965 71.4011 311.204 72.5314 310.382 73.3534C309.601 74.2165 308.656 74.8125 307.546 75.1413C306.478 75.5112 305.06 75.6962 303.292 75.6962H299.778V69.9626H302.306C303.703 69.9626 304.813 69.6132 305.635 68.9145C306.498 68.2158 307.341 66.9211 308.163 65.0305L309.273 62.5028L296.572 34.3281ZM356.744 34.3281V40.0617H340.653V63.1193H334.118V34.3281H356.744ZM363.138 63.1193V34.3281H369.673V53.8716L385.024 34.3281H391.559V63.1193H385.024V43.5758L369.673 63.1193H363.138Z" fill="white"/>
</svg>
