<svg width="383" height="350" viewBox="0 0 383 350" fill="none" xmlns="http://www.w3.org/2000/svg">
<g clip-path="url(#clip0_51_2159)">
<mask id="mask0_51_2159" style="mask-type:luminance" maskUnits="userSpaceOnUse" x="0" y="-56" width="479" height="406">
<path d="M0 350H478.895V-56H0V350Z" fill="white"/>
</mask>
<g mask="url(#mask0_51_2159)">
<path d="M121.734 128.589C130.749 127.16 139.213 133.311 140.642 142.324C142.07 151.339 135.921 159.804 126.906 161.233C117.89 162.66 109.426 156.511 107.997 147.496C106.57 138.482 112.719 130.017 121.734 128.589Z" fill="#FF4053"/>
<path d="M146.328 283.824C164.509 280.943 181.583 293.347 184.464 311.527C187.343 329.709 174.94 346.783 156.76 349.665C138.578 352.544 121.505 340.141 118.623 321.96C115.742 303.778 128.147 286.704 146.328 283.824Z" fill="#FF4053"/>
<path d="M305.823 232.106C280.708 244.88 254.711 255.601 228.101 264.223L228.103 264.228C210.596 269.916 201.015 288.72 206.704 306.228C212.394 323.735 231.199 333.314 248.706 327.625C278.624 317.929 307.857 305.876 336.096 291.514L305.823 232.106Z" fill="#00AAFF"/>
<path d="M424.119 195.573C413.297 180.682 392.454 177.381 377.561 188.202L377.551 188.188C354.681 204.812 330.683 219.463 305.824 232.105L305.83 232.119C289.429 240.477 282.909 260.548 291.266 276.949C299.625 293.35 319.696 299.872 336.097 291.513C364.049 277.298 391.031 260.823 416.748 242.13C431.639 231.309 434.94 210.466 424.119 195.573Z" fill="#03E061"/>
<path d="M304.588 87.7741C332.317 67.6259 371.128 73.7708 391.276 101.5C411.423 129.228 405.278 168.039 377.55 188.187C349.821 208.335 311.01 202.19 290.863 174.461C270.715 146.733 276.859 107.922 304.588 87.7741Z" fill="#00AAFF"/>
<path d="M566.588 -63.9314C575.188 -89.0333 566.924 -117.828 544.335 -134.238C516.604 -154.383 477.794 -148.234 457.649 -120.503C454.283 -115.869 451.668 -110.922 449.747 -105.807C449.239 -104.455 448.792 -103.087 448.383 -101.714C435.623 -67.501 418.094 -34.4247 395.587 -3.43974L395.583 -3.43611C375.439 24.2942 381.587 63.105 409.318 83.2508C437.048 103.395 475.857 97.2469 496.004 69.5166L496.007 69.513C526.507 27.5259 550.018 -17.4044 566.775 -63.8891C566.714 -63.9036 566.651 -63.9181 566.588 -63.9314Z" fill="#03E061"/>
<path d="M162.742 91.8379C159.534 76.7461 144.699 67.1112 129.607 70.3188C107.569 74.9975 85.0676 77.3808 62.4926 77.4013C47.0641 77.4013 34.5571 89.8926 34.5571 105.321C34.5583 120.75 47.0665 133.277 62.495 133.276C88.9775 133.253 115.374 130.463 141.227 124.975C156.319 121.767 165.951 106.929 162.742 91.8379Z" fill="#FF4053"/>
<path d="M193.807 49.5105C207.902 43.2341 224.394 49.5274 230.671 63.6213C236.946 77.7163 230.635 94.2852 216.54 100.56C202.445 106.837 185.906 100.445 179.629 86.3495C173.354 72.2557 179.713 55.7869 193.807 49.5105Z" fill="#00AAFF"/>
<path d="M267.941 186.02C257.348 153.423 222.335 135.585 189.737 146.178C189.736 146.179 189.734 146.179 189.732 146.18C169.199 152.838 148.194 157.872 126.9 161.239L121.729 128.587C102.165 131.681 82.3587 133.258 62.4905 133.274V133.276C62.4917 133.276 62.4929 133.276 62.4941 133.276C71.6208 133.276 79.0195 140.684 79.0195 149.811C79.0207 158.938 71.6221 166.338 62.4953 166.338H62.4905C28.2183 166.343 0.436049 194.129 0.437256 228.402C0.439669 262.677 28.2255 290.462 62.5025 290.46C62.6715 290.46 62.8392 290.448 63.0081 290.447C119.043 290.349 174.787 281.499 228.102 264.231L228.1 264.224C260.697 253.629 278.534 218.617 267.941 186.02Z" fill="#03E061"/>
<path d="M121.734 128.589C130.749 127.16 139.213 133.311 140.642 142.324C142.07 151.339 135.921 159.804 126.906 161.233C117.89 162.66 109.426 156.511 107.997 147.496C106.57 138.482 112.719 130.017 121.734 128.589Z" fill="#965EEB"/>
<path d="M302.397 -29.425C287.08 -12.371 270.259 2.72085 252.283 15.7901C239.801 24.859 236.984 42.2594 246.054 54.741C255.123 67.2226 272.653 70.0705 285.134 61.0017C306.223 45.6709 325.954 27.9676 343.923 7.96064L302.397 -29.425Z" fill="#03E061"/>
<path d="M342.064 -84.0277C336.477 -74.3771 330.341 -64.9209 323.644 -55.7C316.946 -46.4803 309.849 -37.7216 302.397 -29.4251C292.074 -17.9584 292.984 -0.30938 304.451 10.0133C315.917 20.336 333.599 19.4273 343.923 7.9618C352.664 -1.77078 360.989 -12.0452 368.847 -22.8615C376.704 -33.6777 383.905 -44.7691 390.46 -56.0898L342.064 -84.0277Z" fill="#FF4053"/>
<path d="M234.447 92.0384C216.697 101.065 198.325 108.641 179.521 114.735L179.524 114.745C170.844 117.566 166.095 126.889 168.915 135.569C171.736 144.249 181.06 148.999 189.739 146.178C210.185 139.552 230.159 131.313 249.458 121.498L234.447 92.0384Z" fill="#965EEB"/>
<path d="M398.718 -13.7125C398.709 -13.9406 398.703 -14.1675 398.686 -14.3944C398.666 -14.6526 398.633 -14.9084 398.601 -15.1655C398.552 -15.5613 398.49 -15.9547 398.411 -16.3469C398.362 -16.5979 398.317 -16.8489 398.255 -17.0975C398.19 -17.3582 398.112 -17.614 398.036 -17.8723C397.977 -18.0678 397.92 -18.2633 397.854 -18.4563C397.764 -18.7194 397.668 -18.9777 397.565 -19.2371C397.493 -19.4169 397.418 -19.5943 397.341 -19.7717C397.226 -20.0348 397.11 -20.2955 396.981 -20.5525C396.903 -20.707 396.817 -20.859 396.734 -21.0111C396.392 -21.6446 396.017 -22.2601 395.59 -22.849C395.586 -22.8538 395.584 -22.8574 395.581 -22.8623C395.423 -23.0819 395.247 -23.2919 395.074 -23.5055C394.936 -23.678 394.797 -23.8506 394.651 -24.0195C394.489 -24.203 394.323 -24.3828 394.154 -24.5602C393.955 -24.7689 393.747 -24.9717 393.536 -25.1708C393.393 -25.3035 393.256 -25.4399 393.107 -25.569C392.733 -25.8985 392.346 -26.2159 391.934 -26.5151C391.933 -26.5163 391.931 -26.5176 391.93 -26.5188C390.728 -27.3925 389.442 -28.061 388.119 -28.5691C387.409 -28.8406 386.691 -29.0795 385.962 -29.2497C385.438 -29.3704 384.913 -29.4657 384.384 -29.5345C383.856 -29.6045 383.325 -29.6479 382.796 -29.666C377.493 -29.847 372.199 -27.4769 368.847 -22.8623L368.839 -22.8538C367.07 -20.4185 365.271 -18.0195 363.455 -15.6398C362.915 -14.9314 362.369 -14.2315 361.826 -13.5291C360.473 -11.7805 359.107 -10.0476 357.729 -8.32915C357.173 -7.63768 356.621 -6.94379 356.062 -6.25713C354.268 -4.05116 352.459 -1.86571 350.623 0.289577C350.536 0.39336 350.451 0.499557 350.362 0.60334C348.45 2.84551 346.508 5.05269 344.554 7.24056C343.956 7.90911 343.352 8.568 342.75 9.23172C341.29 10.8428 339.818 12.4417 338.333 14.0214C337.831 14.556 337.331 15.0918 336.826 15.624C334.842 17.7093 332.846 19.7753 330.826 21.8099L330.814 21.8207C330.629 21.9897 330.436 22.1453 330.258 22.3252C330.062 22.5194 329.893 22.7282 329.71 22.9297C329.71 22.9297 329.71 22.931 329.709 22.931C329.464 23.1759 329.211 23.41 328.965 23.6538C325.858 27.2367 324.281 32.1012 325.081 37.1527C326.522 46.2385 335.053 52.4364 344.138 50.9979C346.874 50.5635 349.34 49.4822 351.42 47.94C351.479 47.8953 351.538 47.8471 351.598 47.8012C352.366 47.0506 353.109 46.3169 353.68 45.7449C354.05 45.3708 354.416 44.987 354.788 44.6117C360.224 39.1149 365.533 33.4395 370.704 27.5879C370.728 27.5601 370.751 27.5324 370.776 27.5058C372.464 25.5931 374.141 23.661 375.801 21.7097C375.969 21.5106 376.134 21.3091 376.303 21.1087C377.819 19.3215 379.325 17.5222 380.814 15.7024C381.193 15.2414 381.561 14.7708 381.938 14.3062C383.213 12.735 384.489 11.1589 385.745 9.56359C386.474 8.6392 387.186 7.69913 387.907 6.76751C388.808 5.60418 389.714 4.4481 390.605 3.27391C392.217 1.14397 393.813 -1.00407 395.392 -3.17384C395.456 -3.26194 395.523 -3.34762 395.586 -3.43571C395.592 -3.44416 395.597 -3.45261 395.603 -3.46105C395.902 -3.87497 396.176 -4.30096 396.431 -4.73178C396.516 -4.87539 396.591 -5.0214 396.672 -5.16622C396.84 -5.47153 397.002 -5.77805 397.149 -6.08939C397.228 -6.25713 397.303 -6.42367 397.378 -6.59382C397.51 -6.89914 397.63 -7.20686 397.743 -7.51821C397.802 -7.68233 397.866 -7.84524 397.92 -8.01057C398.044 -8.39432 398.153 -8.78048 398.249 -9.16906C398.272 -9.25957 398.301 -9.34767 398.323 -9.43818C398.429 -9.90037 398.51 -10.365 398.575 -10.832C398.602 -11.0227 398.617 -11.2145 398.638 -11.4052C398.668 -11.6936 398.694 -11.9808 398.708 -12.2705C398.72 -12.4889 398.726 -12.7073 398.729 -12.9257C398.732 -13.1888 398.727 -13.4507 398.718 -13.7125Z" fill="#965EEB"/>
<path d="M351.419 47.9405C351.488 47.8898 351.549 47.8343 351.617 47.7836C352.377 47.0379 353.113 46.3114 353.679 45.7442C354.046 45.3761 354.406 44.9972 354.77 44.6279C357.431 41.138 358.725 36.6174 357.983 31.94C356.544 22.8542 348.011 16.6563 338.925 18.096C335.847 18.5835 333.106 19.8916 330.879 21.7561C330.857 21.7766 330.835 21.7995 330.815 21.82C330.629 21.9902 330.436 22.1459 330.257 22.3245C330.063 22.52 329.893 22.7287 329.711 22.9303C327.548 25.0892 325.357 27.2107 323.152 29.308C311.078 40.7928 298.38 51.3738 285.134 61.0014C268.973 72.7505 252.013 83.1045 234.446 92.0382L234.451 92.0503C226.32 96.1931 223.087 106.145 227.232 114.277C231.375 122.408 241.327 125.642 249.458 121.498C268.559 111.783 287.015 100.547 304.587 87.7735C319.655 76.8209 334.067 64.7291 347.73 51.5632C348.971 50.3697 350.192 49.1521 351.419 47.9405Z" fill="#FF4053"/>
</g>
</g>
<defs>
<clipPath id="clip0_51_2159">
<rect width="382.5" height="350" fill="white"/>
</clipPath>
</defs>
</svg>
