<svg xmlns="http://www.w3.org/2000/svg" xmlns:xlink="http://www.w3.org/1999/xlink"><defs><clippath id="b"><path transform="translate(10.86 10.86)" d="M0 0h30.279v30.279H0z"/></clippath><filter id="a" x="-25" y="-25" width="102" height="102" filterunits="userSpaceOnUse" color-interpolation-filters="sRGB"><feflood flood-opacity="0" result="BackgroundImageFix"/><fegaussianblur in="BackgroundImageFix" stddeviation="12.5"/><fecomposite in2="SourceAlpha" operator="in" result="effect1_backgroundBlur_86_205"/><feblend in="SourceGraphic" in2="effect1_backgroundBlur_86_205" result="shape"/></filter><clippath id="a"><path transform="translate(.333)" d="M0 0h59.883v60H0z"/></clippath><clippath id="a"><path d="M0 0h24v24H0z"/></clippath><clippath id="a"><path d="M0 0h24v24H0z"/></clippath></defs><symbol id="icon-badge-1"><path fill-rule="evenodd" clip-rule="evenodd" d="M11 22c-.022-6.068-4.938-10.98-11-10.98 6.075 0 11-4.934 11-11.02.022 6.068 4.938 10.98 11 10.98-6.075 0-11 4.934-11 11.02Z"/></symbol><symbol id="icon-badge-2"><rect width="48" height="48" rx="24"/><path fill-rule="evenodd" clip-rule="evenodd" d="M33 18.028a3.028 3.028 0 0 1-2.525 2.986 3.029 3.029 0 0 1 0 5.972 3.029 3.029 0 1 1-3.489 3.489 3.029 3.029 0 0 1-5.972 0 3.028 3.028 0 1 1-3.489-3.489 3.029 3.029 0 0 1 0-5.972 3.028 3.028 0 1 1 3.489-3.489 3.029 3.029 0 0 1 5.972 0 3.029 3.029 0 0 1 6.014.503Zm-11.986.502a3.03 3.03 0 0 1-2.484 2.484 3.03 3.03 0 0 1 2.484 2.484 3.03 3.03 0 0 1 2.484-2.484 3.03 3.03 0 0 1-2.484-2.484Zm3.488 2.484a3.03 3.03 0 0 0 2.484-2.484 3.03 3.03 0 0 0 2.484 2.484 3.03 3.03 0 0 0-2.484 2.484 3.03 3.03 0 0 0-2.484-2.484Zm2.484 8.456a3.03 3.03 0 0 1 2.484-2.484 3.03 3.03 0 0 1-2.484-2.484 3.03 3.03 0 0 1-2.484 2.484 3.03 3.03 0 0 1 2.484 2.484Zm-5.972-4.968a3.03 3.03 0 0 0 2.484 2.484 3.03 3.03 0 0 0-2.484 2.484 3.03 3.03 0 0 0-2.484-2.484 3.03 3.03 0 0 0 2.484-2.484Z"/></symbol><symbol id="icon-badge-3"><rect width="48" height="48" rx="24"/><path fill-rule="evenodd" clip-rule="evenodd" d="M26.492 19.633c5.207-6.059 10.29 2.904 2.51 4.355 7.78 1.515 2.635 10.414-2.51 4.355 2.635 7.574-7.591 7.511-4.956 0-5.208 6.06-10.29-2.84-2.51-4.355-7.842-1.451-2.698-10.35 2.51-4.355-2.698-7.51 7.591-7.51 4.956 0Zm-2.51 3.22c.628 0 1.192.504 1.192 1.135s-.564 1.2-1.192 1.2c-.627 0-1.129-.569-1.129-1.2s.502-1.136 1.13-1.136Z"/></symbol><symbol id="icon-badge-4"><g filter="url(#a)"><rect width="52" height="52" rx="26"/><g clip-path="url(#b)"><path d="M32.939 19.692a.63.63 0 0 0-.631-.63H26.63a.63.63 0 1 0 0 1.26h5.046v5.047a.63.63 0 1 0 1.262 0v-5.677ZM20.138 32.754l12.616-12.616-.892-.892-12.616 12.616.892.892Z"/></g></g></symbol><symbol id="icon-idea"><path d="M37.452 8.062a.944.944 0 0 0 1.321-.222.947.947 0 0 0-.222-1.322l-.102-.073a.947.947 0 0 0-1.1 1.544l.103.073ZM30.839 11.98a2.667 2.667 0 0 0-1.12 2.186v8.552c0 1.162.741 2.19 1.844 2.557l9.293 3.097.005.002c.033.01.066.017.1.024.016.003.031.009.047.011.018.003.035.003.053.005.032.003.063.007.095.007.05 0 .1-.004.15-.012.005 0 .01-.003.014-.003a.959.959 0 0 0 .13-.032l.005-.002 9.293-3.097a2.692 2.692 0 0 0 1.843-2.557v-8.552c0-.877-.408-1.674-1.119-2.187a2.667 2.667 0 0 0-2.428-.37l-7.888 2.63-7.888-2.63a2.668 2.668 0 0 0-2.43.37Zm11.264 3.94 7.54-2.513a.792.792 0 0 1 .72.11c.212.152.334.389.334.65v8.55a.8.8 0 0 1-.548.76l-8.046 2.682V15.92Zm-1.895 10.24-8.046-2.683a.8.8 0 0 1-.548-.76v-8.55c0-.261.121-.498.333-.65a.792.792 0 0 1 .721-.11l7.54 2.513v10.24ZM42.274 6.845a.944.944 0 0 0 1.322-.222.947.947 0 0 0-.222-1.321l-.103-.074a.948.948 0 0 0-1.1 1.544l.103.073ZM40.075 9.931a.944.944 0 0 0 1.322-.222.947.947 0 0 0-.222-1.321l-.103-.074a.948.948 0 0 0-1.1 1.544l.103.073ZM29.53 32.842h-.126a.947.947 0 1 0 0 1.895h.126a.947.947 0 1 0 0-1.895Z"/><path d="M8.148 29.272a15.44 15.44 0 0 1-5.586-11.904c0-8.532 6.941-15.473 15.473-15.473 5.791 0 11.053 3.192 13.731 8.332a.948.948 0 0 0 1.68-.875A17.328 17.328 0 0 0 18.037 0C8.457 0 .665 7.792.665 17.368a17.329 17.329 0 0 0 6.271 13.36.946.946 0 1 0 1.211-1.457Z"/><path d="M16.772 17.053h.126a.947.947 0 1 0 0-1.895h-.126a.947.947 0 1 0 0 1.895ZM37.434 38.577a.947.947 0 0 0-1.251.48 12.969 12.969 0 0 1-11.832 7.68c-7.14 0-12.947-5.808-12.947-12.948 0-2.519.723-4.96 2.093-7.061a.947.947 0 0 0-1.587-1.035 14.788 14.788 0 0 0-2.401 8.096c0 8.184 6.658 14.843 14.842 14.843a14.865 14.865 0 0 0 13.562-8.804.948.948 0 0 0-.48-1.251ZM14.246 50.526a4.742 4.742 0 0 0-4.737 4.737A4.742 4.742 0 0 0 14.246 60a4.742 4.742 0 0 0 4.737-4.737 4.742 4.742 0 0 0-4.737-4.737Zm0 7.58a2.845 2.845 0 0 1-2.843-2.843 2.845 2.845 0 0 1 2.843-2.842 2.845 2.845 0 0 1 2.842 2.842 2.845 2.845 0 0 1-2.842 2.842ZM42.035 0a18.61 18.61 0 0 0-9.517 2.611.947.947 0 1 0 .969 1.628 16.716 16.716 0 0 1 8.548-2.344c9.229 0 16.737 7.508 16.737 16.736 0 9.23-7.508 16.737-16.737 16.737a16.73 16.73 0 0 1-8.368-2.238.948.948 0 0 0-.948 1.64 18.626 18.626 0 0 0 9.316 2.493c10.274 0 18.632-8.358 18.632-18.631C60.667 8.358 52.309 0 42.035 0Z"/><path d="M29.53 36.632h-.126a.947.947 0 1 0 0 1.894h.126a.947.947 0 1 0 0-1.895ZM10.598 22.343a4.434 4.434 0 0 0 3.144 1.3 4.432 4.432 0 0 0 3.093-1.252 4.432 4.432 0 0 0 3.093 1.252 4.433 4.433 0 0 0 3.144-1.3 4.45 4.45 0 0 0 .049-6.238 4.45 4.45 0 0 0-.049-6.237 4.451 4.451 0 0 0-6.237-.049 4.451 4.451 0 0 0-6.237.05 4.451 4.451 0 0 0-.049 6.236 4.451 4.451 0 0 0 .05 6.238Zm1.34-1.34a2.553 2.553 0 0 1-.049-3.555l3.604 3.604a2.553 2.553 0 0 1-3.555-.05Zm9.795 0a2.553 2.553 0 0 1-3.555.048l3.603-3.603a2.553 2.553 0 0 1-.048 3.555Zm0-9.795c.977.978.992 2.556.048 3.555l-3.603-3.604a2.553 2.553 0 0 1 3.555.049Zm-1.289 4.897-3.609 3.61-3.609-3.61 3.61-3.608 3.608 3.608Zm-8.506-4.897a2.544 2.544 0 0 1 1.804-.746c.631 0 1.26.234 1.75.697l-3.603 3.604a2.553 2.553 0 0 1 .049-3.555ZM31.614 28.737a.947.947 0 0 0-.947-.947h-3.68a2.85 2.85 0 0 0-2.706 1.95l-2.92 8.763a.957.957 0 0 1-1.758.142l-3.255-6.214a.947.947 0 0 0-1.678.88l3.254 6.213a2.845 2.845 0 0 0 2.527 1.529 2.85 2.85 0 0 0 2.707-1.95l2.92-8.763a.957.957 0 0 1 .91-.656h3.679a.947.947 0 0 0 .947-.947ZM8.056 24H7.93a.947.947 0 1 0 0 1.895h.126a.947.947 0 1 0 0-1.895Z"/><path d="M19.424 30.947a.947.947 0 1 0 0-1.894h-.126a.947.947 0 1 0 0 1.894h.127Z"/></symbol><symbol id="icon-lamp"><path d="M29.684 10.953c-4.83.08-9.452 1.98-12.943 5.319-3.546 3.369-5.541 7.758-5.62 12.358a17.479 17.479 0 0 0 5.122 12.644c2.754 2.741 4.182 6.539 3.906 10.289H19.1a.937.937 0 1 0 0 1.875h2.112v5.034a.957.957 0 0 0 .955.942h15.668a.957.957 0 0 0 .955-.942v-5.035h2.112a.937.937 0 1 0 0-1.875h-1.27c-.31-3.867 1.056-7.313 3.976-10.216.003-.003.006-.018.009-.02 3.345-3.418 5.188-7.82 5.188-12.385 0-4.692-1.885-9.137-5.309-12.511-3.658-3.606-8.564-5.552-13.811-5.477Zm7.23 46.586H23.086v-4.102h13.828v4.102Zm5.366-17.518c-3.237 3.221-4.822 7.206-4.528 11.541H22.028c.27-4.335-1.355-8.524-4.463-11.618a15.566 15.566 0 0 1-4.569-11.269c.07-4.094 1.858-8.018 5.037-11.038a17.316 17.316 0 0 1 11.678-4.806c4.742-.07 9.17 1.682 12.468 4.933 3.063 3.02 4.75 6.999 4.75 11.184 0 4.07-1.65 8.01-4.649 11.073ZM29.531 7.17a.938.938 0 0 0 .938-.937V1.528a.938.938 0 0 0-1.875 0v4.705a.937.937 0 0 0 .937.937ZM51.454 10.628l-4.279 3.719a.938.938 0 0 0 1.23 1.415l4.28-3.719a.936.936 0 0 0-.55-1.643.939.939 0 0 0-.681.228ZM11.983 15.344a.938.938 0 0 0 .647-1.616L8.578 9.866a.938.938 0 0 0-1.294 1.357l4.052 3.862c.174.167.406.26.647.26Z"/><path d="M40.92 29.002c1.65-2.699 1.938-5.091.81-6.736-1.127-1.645-3.462-2.24-6.574-1.674l-.105.021c-.014-.032-.027-.066-.042-.098-1.293-2.887-3.103-4.477-5.098-4.477a3.7 3.7 0 0 0-.386.023 2.979 2.979 0 0 0-4.448 3.898c-.106.212-.208.43-.307.654l-.103-.02c-3.113-.566-5.447.028-6.575 1.673-1.127 1.645-.84 4.037.81 6.736.279.455.592.912.935 1.367l-.078.106a2.979 2.979 0 0 0-2.332 5.358c-.059 1.007.166 1.909.665 2.636.85 1.24 2.384 1.882 4.42 1.882a12.115 12.115 0 0 0 2.155-.208l.104-.02.042.097c1.293 2.887 3.104 4.477 5.098 4.477 1.994 0 3.804-1.59 5.098-4.477l.041-.098.105.021c.71.134 1.432.203 2.155.208 2.036 0 3.57-.643 4.42-1.882.48-.7.707-1.562.67-2.524a2.98 2.98 0 0 0-2.31-5.433c-.034-.048-.07-.096-.105-.143.344-.455.657-.912.935-1.367Zm-7.036 8.909c-.636-.19-1.263-.41-1.877-.662a31.417 31.417 0 0 0 2.467-1.612c-.152.769-.35 1.528-.59 2.274Zm-7.948-.002a20.165 20.165 0 0 1-.587-2.272 30.323 30.323 0 0 0 2.466 1.611c-.615.252-1.242.473-1.88.661Zm-2.951-6.757a22.07 22.07 0 0 1-.726-.782c.23-.262.472-.522.725-.78a31.42 31.42 0 0 0 .001 1.562Zm4.064 3.39a28.943 28.943 0 0 1-2.083-1.569 28.899 28.899 0 0 1-.001-5.207 28.58 28.58 0 0 1 4.945-3.3 28.44 28.44 0 0 1 4.946 3.3 28.898 28.898 0 0 1 0 5.206 28.97 28.97 0 0 1-4.944 3.297 28.486 28.486 0 0 1-2.863-1.726Zm-1.115-11.72c.638.19 1.266.412 1.881.665a31.487 31.487 0 0 0-2.47 1.615 20.1 20.1 0 0 1 .589-2.28Zm7.954.005c.239.745.435 1.504.586 2.272a30.81 30.81 0 0 0-2.466-1.612 19.8 19.8 0 0 1 1.879-.66Zm2.95 6.76c.252.26.494.52.726.782-.231.263-.473.523-.726.783a31.446 31.446 0 0 0 0-1.564Zm3.346-6.26c.674.984.36 2.696-.864 4.697-.175.286-.365.573-.57.861a26.164 26.164 0 0 0-2.108-2.06 24.306 24.306 0 0 0-.923-4.42c2.187-.352 3.82-.018 4.465.921Zm-6.982-2.254a23.422 23.422 0 0 0-3.29 1.297 23.977 23.977 0 0 0-2.782-1.134 2.979 2.979 0 0 0 3.38-3.22c.959.32 1.91 1.393 2.692 3.057Zm-5.66-3.895a1.106 1.106 0 1 1 0 2.211 1.106 1.106 0 0 1 0-2.21Zm-7.04 10.846c-1.223-2.001-1.538-3.714-.863-4.698.652-.951 2.273-1.283 4.465-.926a24.377 24.377 0 0 0-.924 4.425 26.24 26.24 0 0 0-2.107 2.06 15.11 15.11 0 0 1-.57-.861Zm-1.37 4.259a1.106 1.106 0 1 1 0 2.213 1.106 1.106 0 0 1-.001-2.213Zm3.385 6.186c-1.383 0-2.401-.365-2.878-1.06a2.078 2.078 0 0 1-.339-1.044 2.979 2.979 0 0 0 2.768-3.481c.356.348.727.691 1.114 1.03.17 1.498.479 2.977.923 4.418-.525.087-1.056.133-1.589.137Zm7.394 4.353c-1.154 0-2.346-1.149-3.29-3.16a23.406 23.406 0 0 0 3.29-1.296c1.061.513 2.16.946 3.286 1.294-.947 2.004-2.147 3.162-3.286 3.162Zm5.806-4.487c.445-1.441.754-2.922.925-4.421.467-.409.913-.826 1.335-1.249a2.98 2.98 0 0 0 2.548 3.684 2.085 2.085 0 0 1-.342 1.06c-.652.952-2.274 1.284-4.466.926Zm6.258-4.946a1.106 1.106 0 1 1-2.212 0 1.106 1.106 0 0 1 2.212 0Z"/><path d="M29.911 27.387a2.98 2.98 0 1 0 0 5.961 2.98 2.98 0 0 0 0-5.961Zm0 4.087a1.105 1.105 0 1 1 0-2.211 1.105 1.105 0 0 1 0 2.21Z"/></symbol><symbol id="icon-mind"><g clip-path="url(#a)"><path d="M56.337 30.007c1.263-2.517 2.257-5.047 2.947-7.54 2.163-7.81 1.115-14.352-2.95-18.417C52.269-.015 45.728-1.062 37.917 1.1c-2.493.69-5.023 1.685-7.54 2.947-3.131-1.572-6.267-2.722-9.288-3.384C14.07-.875 8.156.328 4.434 4.05 2.045 6.44.66 9.796.428 13.758c-.208 3.564.514 7.654 2.088 11.868a5.567 5.567 0 0 0 0 8.748C.942 38.588.22 42.678.428 46.242c.232 3.962 1.617 7.319 4.006 9.708 2.668 2.668 6.411 4.044 10.933 4.044.907 0 1.847-.056 2.815-.167 3.877-.448 8.02-1.768 12.2-3.87 2.516 1.26 5.044 2.253 7.535 2.943 2.658.736 5.17 1.1 7.486 1.1 4.49 0 8.25-1.369 10.93-4.05 3.723-3.722 4.926-9.637 3.388-16.655-.662-3.02-1.812-6.157-3.383-9.288Zm-17.95-27.21C45.56.811 51.491 1.698 55.088 5.295c3.597 3.598 4.484 9.53 2.498 16.703a39.039 39.039 0 0 1-2.27 6.082c-1.704-3.054-3.798-6.08-6.224-8.966a5.547 5.547 0 0 0 1.188-3.435 5.52 5.52 0 0 0-1.172-3.421l-1.39 1.08c.524.675.801 1.484.801 2.34a3.82 3.82 0 0 1-3.815 3.816 3.82 3.82 0 0 1-3.815-3.815 3.82 3.82 0 0 1 5.762-3.282l.9-1.514a5.573 5.573 0 0 0-6.281.409c-2.887-2.427-5.913-4.521-8.967-6.225a39.088 39.088 0 0 1 6.082-2.27ZM5.678 5.295C10.44.535 19.17.713 28.456 5.062c-4.534 2.53-8.98 5.915-13.038 9.972-3.008 3.008-5.656 6.24-7.88 9.613a5.623 5.623 0 0 0-3.468.11C1.02 16.442 1.591 9.383 5.68 5.295Zm9.733 52.932c-3.982 0-7.369-1.158-9.733-3.522-4.088-4.088-4.66-11.147-1.609-19.462a5.548 5.548 0 0 0 3.466.107c2.224 3.374 4.873 6.607 7.882 9.616 4.056 4.056 8.502 7.44 13.034 9.97-4.656 2.178-9.135 3.291-13.04 3.29Zm14.967-4.25c-4.756-2.498-9.452-5.992-13.716-10.256-2.865-2.866-5.392-5.936-7.523-9.139a5.572 5.572 0 0 0 2.382-5.078l-1.754.155a3.82 3.82 0 0 1-3.8 4.156A3.82 3.82 0 0 1 2.153 30a3.82 3.82 0 0 1 3.815-3.815c1.453 0 2.76.808 3.412 2.107l1.574-.79a5.582 5.582 0 0 0-1.81-2.09c2.13-3.2 4.656-6.27 7.52-9.133 4.264-4.265 8.962-7.76 13.72-10.259 3.237 1.705 6.513 3.902 9.686 6.563a5.54 5.54 0 0 0-.94 3.096 5.582 5.582 0 0 0 5.575 5.575c1.145 0 2.21-.347 3.096-.94 2.661 3.173 4.858 6.45 6.562 9.686-2.498 4.758-5.993 9.456-10.258 13.721-.47.469-.951.935-1.438 1.391a5.55 5.55 0 0 0-3.596-1.32 5.523 5.523 0 0 0-3.421 1.173l1.081 1.39a3.78 3.78 0 0 1 2.34-.801 3.82 3.82 0 0 1 3.815 3.814 3.82 3.82 0 0 1-3.815 3.816 3.82 3.82 0 0 1-3.282-5.761l-1.514-.9a5.573 5.573 0 0 0-.206 5.307 51.078 51.078 0 0 1-3.69 2.147Zm24.71.728c-3.597 3.597-9.53 4.484-16.703 2.498a39.08 39.08 0 0 1-6.077-2.269 54.09 54.09 0 0 0 2.78-1.666 5.56 5.56 0 0 0 3.982 1.676 5.582 5.582 0 0 0 5.576-5.575c0-1.07-.304-2.071-.83-2.922.52-.485 1.033-.981 1.533-1.48 4.057-4.059 7.443-8.506 9.972-13.04 4.35 9.289 4.527 18.017-.233 22.778Z"/><path d="M44.822 39.098h-1.819V34.66a4.419 4.419 0 0 0-3.207-4.237l-.658-.185-.478 1.695.658.186a2.65 2.65 0 0 1 1.924 2.541v4.437h-3.17V36.69h-1.76v2.407h-7.924v1.76h16.434v-1.76Z"/><path d="m33.296 30.42 3.67 1.036.478-1.695-3.597-1.014v-2.339a6.161 6.161 0 0 0 2.7-5.095v-2.582a6.17 6.17 0 0 0-6.163-6.163 6.17 6.17 0 0 0-6.163 6.163v2.582a6.161 6.161 0 0 0 2.7 5.095v2.339l-5.949 1.677a4.419 4.419 0 0 0-3.207 4.237v4.437h-1.82v1.76h10.683v-1.76h-2.172V36.69h-1.76v2.407h-3.17V34.66a2.65 2.65 0 0 1 1.924-2.542l6.022-1.698a3.933 3.933 0 0 0 2.912 1.281c1.123 0 2.17-.47 2.912-1.281ZM30.384 14.33a4.407 4.407 0 0 1 4.402 4.402v.98l-1.85-2.447h-6.701a4.409 4.409 0 0 1 4.15-2.935Zm-4.402 6.985v-2.29h6.077l2.581 3.414a4.41 4.41 0 0 1-4.256 3.277 4.407 4.407 0 0 1-4.402-4.401Zm2.7 7.815v-1.894a6.126 6.126 0 0 0 3.404 0v1.894a2.18 2.18 0 0 1-1.702.812 2.18 2.18 0 0 1-1.702-.812Z"/><path d="m35.034 34.57-2.48-.7.478-1.694 2.48.7-.478 1.694ZM38.9 33.828l-.479 1.694-1.695-.477.479-1.695 1.694.478ZM43.825 14.799h1.76v1.76h-1.76V14.8ZM38.19 48.489h1.76v1.76h-1.76v-1.76ZM5.087 29.12h1.761v1.76h-1.76v-1.76Z"/></g></symbol><symbol id="icon-offline"><g clip-path="url(#a)"><path d="M20 16h-3.2V8H20c2.206 0 4-1.794 4-4s-1.794-4-4-4-4 1.794-4 4v3.2H8V4c0-2.206-1.794-4-4-4S0 1.794 0 4s1.794 4 4 4h3.2v8H4c-2.206 0-4 1.794-4 4s1.794 4 4 4 4-1.794 4-4v-3.2h8V20c0 2.206 1.794 4 4 4s4-1.794 4-4-1.794-4-4-4ZM16.8 4c0-1.764 1.436-3.2 3.2-3.2 1.764 0 3.2 1.436 3.2 3.2 0 1.764-1.436 3.2-3.2 3.2h-3.2V4ZM4 7.2A3.204 3.204 0 0 1 .8 4C.8 2.236 2.236.8 4 .8 5.764.8 7.2 2.236 7.2 4v3.2H4ZM7.2 20c0 1.764-1.436 3.2-3.2 3.2A3.204 3.204 0 0 1 .8 20c0-1.764 1.436-3.2 3.2-3.2h3.2V20Zm.8-4V8h8v8H8Zm12 7.2a3.204 3.204 0 0 1-3.2-3.2v-3.2H20c1.764 0 3.2 1.436 3.2 3.2 0 1.764-1.436 3.2-3.2 3.2Z"/></g></symbol><symbol id="icon-online"><g clip-path="url(#a)"><path d="M20.974 19.954A11.948 11.948 0 0 0 24 12c0-3.173-1.24-6.06-3.257-8.207l-.006-.006A11.966 11.966 0 0 0 12.416.011l-.234-.007C12.122.002 12.06 0 12 0c-.06 0-.121.002-.182.004l-.233.006a11.966 11.966 0 0 0-8.321 3.777l-.006.005v.001A11.95 11.95 0 0 0 0 12c0 3.05 1.145 5.835 3.026 7.954.002.004.002.008.005.011.007.01.018.016.026.025a11.973 11.973 0 0 0 8.528 4l.233.006c.06.002.121.004.182.004.06 0 .121-.002.182-.004l.233-.006a11.972 11.972 0 0 0 8.535-4.008c.005-.007.014-.01.019-.017.003-.003.003-.007.005-.011ZM.838 12.414h4.967c.046 1.754.39 3.458.999 5.055a15.256 15.256 0 0 0-3.356 1.71 11.121 11.121 0 0 1-2.61-6.765ZM3.674 4.56a15.22 15.22 0 0 0 3.269 1.607 15.28 15.28 0 0 0-1.138 5.418H.838a11.124 11.124 0 0 1 2.836-7.025Zm19.488 7.025h-4.967a15.281 15.281 0 0 0-1.138-5.418 15.22 15.22 0 0 0 3.27-1.607 11.124 11.124 0 0 1 2.835 7.025ZM11.586 6.192a14.465 14.465 0 0 1-3.505-.531 14.478 14.478 0 0 1 3.505-4.567v5.098Zm0 .827v4.567H6.632c.051-1.799.429-3.544 1.103-5.162 1.244.36 2.536.56 3.851.595Zm.828 0a15.277 15.277 0 0 0 3.851-.595 14.452 14.452 0 0 1 1.103 5.162h-4.954V7.02Zm0-.827V1.094a14.477 14.477 0 0 1 3.505 4.567 14.465 14.465 0 0 1-3.505.53Zm4.307-.783A15.282 15.282 0 0 0 13.457.926a11.14 11.14 0 0 1 6.283 3.028 14.393 14.393 0 0 1-3.019 1.455Zm-9.442 0a14.379 14.379 0 0 1-3.018-1.455A11.139 11.139 0 0 1 10.543.926 15.276 15.276 0 0 0 7.28 5.409Zm-.647 7.005h4.954v4.153c-1.368.037-2.709.25-3.997.638a14.451 14.451 0 0 1-.957-4.791Zm4.954 4.981v5.51a14.47 14.47 0 0 1-3.676-4.93 14.427 14.427 0 0 1 3.676-.58Zm.828 5.51v-5.51c1.257.035 2.49.23 3.676.58a14.467 14.467 0 0 1-3.676 4.93Zm0-6.338v-4.153h4.954a14.442 14.442 0 0 1-.957 4.792 15.244 15.244 0 0 0-3.997-.639Zm5.781-4.153h4.967a11.119 11.119 0 0 1-2.61 6.764 15.258 15.258 0 0 0-3.356-1.709c.61-1.597.953-3.301 1-5.055ZM4.01 19.798a14.423 14.423 0 0 1 3.11-1.564 15.27 15.27 0 0 0 3.423 4.84 11.148 11.148 0 0 1-6.533-3.276Zm9.447 3.276a15.26 15.26 0 0 0 3.422-4.84 14.43 14.43 0 0 1 3.11 1.564 11.148 11.148 0 0 1-6.532 3.276Z"/></g></symbol></svg>